<?xml version="1.0" encoding="UTF-8"?>
<!DOCTYPE svg PUBLIC "-//W3C//DTD SVG 1.1//EN" "http://www.w3.org/Graphics/SVG/1.1/DTD/svg11.dtd">
<svg xmlns="http://www.w3.org/2000/svg" version="1.1" width="500px" height="500px" style="shape-rendering:geometricPrecision; text-rendering:geometricPrecision; image-rendering:optimizeQuality; fill-rule:evenodd; clip-rule:evenodd" xmlns:xlink="http://www.w3.org/1999/xlink">
<g><path style="opacity:1" fill="#fefefe" d="M -0.5,-0.5 C 166.167,-0.5 332.833,-0.5 499.5,-0.5C 499.5,166.167 499.5,332.833 499.5,499.5C 332.833,499.5 166.167,499.5 -0.5,499.5C -0.5,332.833 -0.5,166.167 -0.5,-0.5 Z"/></g>
<g><path style="opacity:1" fill="#46ae3b" d="M 287.5,16.5 C 285.337,17.4691 283.004,18.3024 280.5,19C 280.833,19.3333 281.167,19.6667 281.5,20C 283.402,20.1992 284.902,21.0325 286,22.5C 286.75,21.8742 287.584,21.3742 288.5,21C 288.167,20.6667 287.833,20.3333 287.5,20C 289.433,19.7489 291.266,19.2489 293,18.5C 295.668,19.9804 295.835,21.4804 293.5,23C 296.5,25.003 299.833,25.8364 303.5,25.5C 303.5,26.8333 303.5,28.1667 303.5,29.5C 306.978,29.1842 310.312,29.6842 313.5,31C 312.833,31.6667 312.167,32.3333 311.5,33C 306.765,34.0174 302.098,34.184 297.5,33.5C 296.155,30.4492 293.988,29.4492 291,30.5C 288.369,28.8756 285.536,27.709 282.5,27C 282.833,26.6667 283.167,26.3333 283.5,26C 278.638,25.3079 273.805,25.4745 269,26.5C 268.167,26.1667 267.333,25.8333 266.5,25.5C 266.667,25.1667 266.833,24.8333 267,24.5C 268.299,24.9662 269.799,24.9662 271.5,24.5C 271.33,23.1779 271.663,22.0113 272.5,21C 267.167,20.3333 261.833,20.3333 256.5,21C 255.471,22.6984 253.971,23.5317 252,23.5C 242.426,21.4992 232.926,20.4992 223.5,20.5C 223.5,22.5 223.5,24.5 223.5,26.5C 218.484,26.6782 213.818,28.0115 209.5,30.5C 206.15,28.979 202.984,29.3123 200,31.5C 198.541,31.1918 197.374,30.5251 196.5,29.5C 197.995,29.5852 198.995,28.9185 199.5,27.5C 198.024,27.6465 196.691,26.8131 195.5,25C 197.274,22.6074 199.607,20.9408 202.5,20C 198.179,19.501 193.846,19.3343 189.5,19.5C 192.677,18.257 196.01,17.257 199.5,16.5C 203.489,16.8836 207.155,16.217 210.5,14.5C 228.983,11.5799 247.65,10.7466 266.5,12C 273.681,13.1032 280.681,14.6032 287.5,16.5 Z"/></g>
<g><path style="opacity:1" fill="#7cc473" d="M 210.5,14.5 C 207.155,16.217 203.489,16.8836 199.5,16.5C 202.974,15.4751 206.64,14.8084 210.5,14.5 Z"/></g>
<g><path style="opacity:1" fill="#49ad3d" d="M 297.5,33.5 C 289.776,32.9914 282.443,31.158 275.5,28C 259.5,27.3333 243.5,27.3333 227.5,28C 225.68,28.2004 224.347,29.0337 223.5,30.5C 223.167,30.5 222.833,30.5 222.5,30.5C 214.474,31.0039 206.474,31.8372 198.5,33C 197.619,33.7083 196.953,34.5416 196.5,35.5C 188.375,37.4308 180.375,39.7641 172.5,42.5C 168.207,43.6564 163.874,44.6564 159.5,45.5C 160.171,44.1529 160.171,42.9862 159.5,42C 157.866,41.5065 156.199,41.3398 154.5,41.5C 154.137,39.0885 155.137,37.5885 157.5,37C 160.871,36.2563 164.037,36.7563 167,38.5C 171.67,36.2433 176.17,33.5766 180.5,30.5C 183.862,29.0998 187.029,29.4331 190,31.5C 191.789,29.771 193.956,29.1043 196.5,29.5C 197.374,30.5251 198.541,31.1918 200,31.5C 202.984,29.3123 206.15,28.979 209.5,30.5C 213.818,28.0115 218.484,26.6782 223.5,26.5C 223.5,24.5 223.5,22.5 223.5,20.5C 232.926,20.4992 242.426,21.4992 252,23.5C 253.971,23.5317 255.471,22.6984 256.5,21C 261.833,20.3333 267.167,20.3333 272.5,21C 271.663,22.0113 271.33,23.1779 271.5,24.5C 269.799,24.9662 268.299,24.9662 267,24.5C 266.833,24.8333 266.667,25.1667 266.5,25.5C 267.333,25.8333 268.167,26.1667 269,26.5C 273.805,25.4745 278.638,25.3079 283.5,26C 283.167,26.3333 282.833,26.6667 282.5,27C 285.536,27.709 288.369,28.8756 291,30.5C 293.988,29.4492 296.155,30.4492 297.5,33.5 Z"/></g>
<g><path style="opacity:1" fill="#c5dcc0" d="M 309.5,20.5 C 312.716,20.3455 315.383,21.3455 317.5,23.5C 314.603,22.871 311.936,21.871 309.5,20.5 Z"/></g>
<g><path style="opacity:1" fill="#59bc48" d="M 188.5,19.5 C 186.359,20.7551 185.693,22.4218 186.5,24.5C 185.667,24.8333 184.833,25.1667 184,25.5C 180.861,24.5743 177.694,24.4077 174.5,25C 169.834,27.5836 164.834,29.0836 159.5,29.5C 168.707,25.107 178.373,21.7737 188.5,19.5 Z"/></g>
<g><path style="opacity:1" fill="#43a636" d="M 287.5,16.5 C 294.927,17.4526 302.261,18.7859 309.5,20.5C 311.936,21.871 314.603,22.871 317.5,23.5C 329.817,27.4933 341.484,32.8267 352.5,39.5C 352.539,40.5832 352.873,41.5832 353.5,42.5C 351.985,44.5473 351.151,46.8807 351,49.5C 348.695,51.9305 345.862,52.9305 342.5,52.5C 341.508,52.6716 340.842,52.3382 340.5,51.5C 340.5,50.1667 340.5,48.8333 340.5,47.5C 337.054,46.0723 333.387,45.2389 329.5,45C 327.677,43.3421 326.01,41.5088 324.5,39.5C 323.325,40.8549 322.325,40.6883 321.5,39C 316.578,39.3789 312.412,37.8789 309,34.5C 308.722,35.4158 308.222,36.0825 307.5,36.5C 303.884,36.1007 300.55,35.1007 297.5,33.5C 302.098,34.184 306.765,34.0174 311.5,33C 312.167,32.3333 312.833,31.6667 313.5,31C 310.312,29.6842 306.978,29.1842 303.5,29.5C 303.5,28.1667 303.5,26.8333 303.5,25.5C 299.833,25.8364 296.5,25.003 293.5,23C 295.835,21.4804 295.668,19.9804 293,18.5C 291.266,19.2489 289.433,19.7489 287.5,20C 287.833,20.3333 288.167,20.6667 288.5,21C 287.584,21.3742 286.75,21.8742 286,22.5C 284.902,21.0325 283.402,20.1992 281.5,20C 281.167,19.6667 280.833,19.3333 280.5,19C 283.004,18.3024 285.337,17.4691 287.5,16.5 Z"/></g>
<g><path style="opacity:1" fill="#fefefe" d="M 237.5,29.5 C 248.518,29.3808 259.518,29.7141 270.5,30.5C 276.291,31.9874 282.291,32.9874 288.5,33.5C 290.515,34.9238 292.848,35.5905 295.5,35.5C 300.318,36.2389 304.985,37.5723 309.5,39.5C 319.974,43.1032 330.308,47.1032 340.5,51.5C 340.842,52.3382 341.508,52.6716 342.5,52.5C 342.842,53.3382 343.508,53.6716 344.5,53.5C 345.29,54.4013 346.29,55.0679 347.5,55.5C 351.93,58.9841 355.93,62.9841 359.5,67.5C 364.561,74.5657 369.228,81.8991 373.5,89.5C 376.634,96.0766 379.467,102.743 382,109.5C 382.995,113.145 383.828,116.812 384.5,120.5C 384.41,123.152 385.076,125.485 386.5,127.5C 388.549,132.612 389.715,137.946 390,143.5C 390.5,153.161 390.666,162.828 390.5,172.5C 390.5,175.833 390.5,179.167 390.5,182.5C 388.51,193.405 386.51,204.405 384.5,215.5C 377.031,244.78 364.364,271.78 346.5,296.5C 334.389,310.24 321.723,323.407 308.5,336C 295.309,347.086 281.309,356.919 266.5,365.5C 263.55,366.308 260.883,367.642 258.5,369.5C 256.509,344.522 255.843,319.189 256.5,293.5C 259.833,292.833 263.167,292.167 266.5,291.5C 266.833,291.5 267.167,291.5 267.5,291.5C 280.685,290.334 292.352,285.667 302.5,277.5C 303.167,277.5 303.5,277.167 303.5,276.5C 314.606,266.288 320.94,253.621 322.5,238.5C 324.444,231.75 324.944,224.75 324,217.5C 319.4,216.177 314.9,216.177 310.5,217.5C 303.835,218.294 297.501,219.96 291.5,222.5C 278.467,228.941 267.967,238.274 260,250.5C 259.187,252.436 258.687,254.436 258.5,256.5C 256.836,232.35 255.836,208.017 255.5,183.5C 255.739,181.533 255.406,179.699 254.5,178C 249.648,177.185 244.981,177.352 240.5,178.5C 240.164,205.682 239.164,232.682 237.5,259.5C 235.174,251.51 230.84,244.843 224.5,239.5C 214.109,226.469 200.442,219.469 183.5,218.5C 179.366,217.515 175.032,217.182 170.5,217.5C 168.621,234.272 171.788,249.939 180,264.5C 181.617,266.763 183.45,268.763 185.5,270.5C 191.066,278.393 198.399,284.059 207.5,287.5C 212.191,289.591 217.191,290.924 222.5,291.5C 224.117,292.038 225.784,292.371 227.5,292.5C 231.231,293.196 235.065,293.862 239,294.5C 239.5,320.165 239.667,345.831 239.5,371.5C 238.5,371.5 237.5,371.5 236.5,371.5C 217.644,361.738 198.311,353.072 178.5,345.5C 176.388,343.229 173.721,341.896 170.5,341.5C 164.265,338.882 157.932,336.548 151.5,334.5C 144.345,330.119 136.678,326.786 128.5,324.5C 125.47,322.597 122.137,321.263 118.5,320.5C 103.488,312.984 88.4877,305.317 73.5,297.5C 68.2039,293.846 62.8705,290.179 57.5,286.5C 54.1486,283.152 50.4819,280.152 46.5,277.5C 44.3598,274.835 41.8598,272.502 39,270.5C 36.1445,262.497 34.9779,254.163 35.5,245.5C 35.7311,238.157 36.0644,230.824 36.5,223.5C 37.9573,218.402 38.624,213.069 38.5,207.5C 38.925,203.092 39.5916,198.758 40.5,194.5C 41.9238,192.485 42.5905,190.152 42.5,187.5C 48.64,164.223 58.3066,142.557 71.5,122.5C 71.5,122.167 71.5,121.833 71.5,121.5C 83.1008,106.887 95.7674,93.0536 109.5,80C 116.568,74.8123 123.568,69.6456 130.5,64.5C 143.971,56.0982 157.971,48.7649 172.5,42.5C 180.375,39.7641 188.375,37.4308 196.5,35.5C 205.289,33.8161 213.956,32.1494 222.5,30.5C 222.833,30.5 223.167,30.5 223.5,30.5C 228.152,30.0019 232.819,29.6686 237.5,29.5 Z"/></g>
<g><path style="opacity:1" fill="#71b96b" d="M 222.5,30.5 C 213.956,32.1494 205.289,33.8161 196.5,35.5C 196.953,34.5416 197.619,33.7083 198.5,33C 206.474,31.8372 214.474,31.0039 222.5,30.5 Z"/></g>
<g><path style="opacity:1" fill="#62ae5d" d="M 297.5,33.5 C 300.55,35.1007 303.884,36.1007 307.5,36.5C 308.167,37.5 308.833,38.5 309.5,39.5C 304.985,37.5723 300.318,36.2389 295.5,35.5C 293.485,34.0762 291.152,33.4095 288.5,33.5C 282.291,32.9874 276.291,31.9874 270.5,30.5C 264.238,28.9805 257.738,28.3138 251,28.5C 246.32,28.5009 241.82,28.8342 237.5,29.5C 232.819,29.6686 228.152,30.0019 223.5,30.5C 224.347,29.0337 225.68,28.2004 227.5,28C 243.5,27.3333 259.5,27.3333 275.5,28C 282.443,31.158 289.776,32.9914 297.5,33.5 Z"/></g>
<g><path style="opacity:1" fill="#8bc08b" d="M 237.5,29.5 C 241.82,28.8342 246.32,28.5009 251,28.5C 257.738,28.3138 264.238,28.9805 270.5,30.5C 259.518,29.7141 248.518,29.3808 237.5,29.5 Z"/></g>
<g><path style="opacity:1" fill="#95c293" d="M 288.5,33.5 C 291.152,33.4095 293.485,34.0762 295.5,35.5C 292.848,35.5905 290.515,34.9238 288.5,33.5 Z"/></g>
<g><path style="opacity:1" fill="#58ac4b" d="M 340.5,51.5 C 330.308,47.1032 319.974,43.1032 309.5,39.5C 308.833,38.5 308.167,37.5 307.5,36.5C 308.222,36.0825 308.722,35.4158 309,34.5C 312.412,37.8789 316.578,39.3789 321.5,39C 322.325,40.6883 323.325,40.8549 324.5,39.5C 326.01,41.5088 327.677,43.3421 329.5,45C 333.387,45.2389 337.054,46.0723 340.5,47.5C 340.5,48.8333 340.5,50.1667 340.5,51.5 Z"/></g>
<g><path style="opacity:1" fill="#46933b" d="M 352.5,39.5 C 353.609,39.5569 354.609,39.8902 355.5,40.5C 356.622,42.0518 357.122,43.7184 357,45.5C 354.057,47.9006 351.223,50.4006 348.5,53C 347.207,53.49 345.873,53.6567 344.5,53.5C 343.508,53.6716 342.842,53.3382 342.5,52.5C 345.862,52.9305 348.695,51.9305 351,49.5C 351.151,46.8807 351.985,44.5473 353.5,42.5C 352.873,41.5832 352.539,40.5832 352.5,39.5 Z"/></g>
<g><path style="opacity:1" fill="#2f6635" d="M 355.5,40.5 C 357.816,41.8056 360.15,43.1389 362.5,44.5C 365.461,47.7248 367.961,51.3914 370,55.5C 373.285,54.795 375.785,56.1283 377.5,59.5C 380.963,60.6509 384.296,61.9843 387.5,63.5C 387.297,65.3904 387.963,66.8904 389.5,68C 392.286,70.0596 395.286,71.5596 398.5,72.5C 398.833,72.5 399.167,72.5 399.5,72.5C 399.343,73.8734 399.51,75.2068 400,76.5C 400.333,76.1667 400.667,75.8333 401,75.5C 402,77.8333 403.667,79.5 406,80.5C 405.591,82.2251 405.758,83.8918 406.5,85.5C 408.167,86.6667 409.833,87.8333 411.5,89C 408.348,90.8543 405.348,90.521 402.5,88C 404.795,87.0164 404.461,86.1831 401.5,85.5C 400.201,86.09 399.368,87.09 399,88.5C 397.601,88.4988 396.101,88.1654 394.5,87.5C 393.808,88.0253 393.308,88.6919 393,89.5C 391.293,88.8617 389.46,88.8617 387.5,89.5C 387.762,90.9778 387.429,92.3112 386.5,93.5C 385.167,91.8333 383.833,90.1667 382.5,88.5C 381.571,89.6888 381.238,91.0222 381.5,92.5C 379.053,92.385 377.053,91.385 375.5,89.5C 374.545,87.2543 373.878,84.921 373.5,82.5C 374.822,82.33 375.989,82.6634 377,83.5C 381.743,80.6021 381.243,78.6021 375.5,77.5C 374.96,76.2519 374.293,75.0852 373.5,74C 368.218,74.7497 364.551,72.7497 362.5,68C 361.552,67.5172 360.552,67.3505 359.5,67.5C 358.882,64.6021 357.715,61.9354 356,59.5C 354.667,58.8333 353.667,57.8333 353,56.5C 352.667,56.8333 352.333,57.1667 352,57.5C 350.951,55.8934 349.451,55.2267 347.5,55.5C 346.29,55.0679 345.29,54.4013 344.5,53.5C 345.873,53.6567 347.207,53.49 348.5,53C 351.223,50.4006 354.057,47.9006 357,45.5C 357.122,43.7184 356.622,42.0518 355.5,40.5 Z"/></g>
<g><path style="opacity:1" fill="#4cb53a" d="M 188.5,19.5 C 188.833,19.5 189.167,19.5 189.5,19.5C 193.846,19.3343 198.179,19.501 202.5,20C 199.607,20.9408 197.274,22.6074 195.5,25C 196.691,26.8131 198.024,27.6465 199.5,27.5C 198.995,28.9185 197.995,29.5852 196.5,29.5C 193.956,29.1043 191.789,29.771 190,31.5C 187.029,29.4331 183.862,29.0998 180.5,30.5C 176.17,33.5766 171.67,36.2433 167,38.5C 164.037,36.7563 160.871,36.2563 157.5,37C 155.137,37.5885 154.137,39.0885 154.5,41.5C 156.199,41.3398 157.866,41.5065 159.5,42C 160.171,42.9862 160.171,44.1529 159.5,45.5C 158.167,45.5 156.833,45.5 155.5,45.5C 155.5,46.5 155.5,47.5 155.5,48.5C 153.815,50.0566 151.148,50.89 147.5,51C 148.167,51.3333 148.833,51.6667 149.5,52C 147.58,53.1223 145.58,53.9556 143.5,54.5C 142.056,49.1155 139.39,48.4488 135.5,52.5C 137.162,53.3267 138.495,54.4933 139.5,56C 138.956,56.7172 138.289,57.2172 137.5,57.5C 135.409,57.3184 133.409,57.6518 131.5,58.5C 130.201,57.91 129.368,56.91 129,55.5C 128.097,56.7014 126.931,57.5348 125.5,58C 126.654,58.9138 126.487,59.7471 125,60.5C 122.814,60.6997 120.647,60.0331 118.5,58.5C 116.594,60.9566 114.26,62.9566 111.5,64.5C 113.401,65.935 113.734,67.6017 112.5,69.5C 111.158,67.9951 109.492,67.3285 107.5,67.5C 106.107,72.556 102.773,75.556 97.5,76.5C 98.6716,78.8228 98.6716,81.1561 97.5,83.5C 97.3957,85.9728 96.3957,86.6394 94.5,85.5C 91.6513,86.6769 89.318,88.5103 87.5,91C 89.4812,91.6054 89.8146,92.6054 88.5,94C 87.2068,94.49 85.8734,94.6567 84.5,94.5C 84.6495,95.552 84.4828,96.552 84,97.5C 82.0955,98.158 80.5955,99.3247 79.5,101C 80.6091,102.813 79.9424,103.646 77.5,103.5C 78.1378,106.856 76.8044,108.856 73.5,109.5C 72.5655,110.568 72.2322,111.901 72.5,113.5C 70.1272,112.706 67.7938,111.706 65.5,110.5C 64.8919,112.684 65.5586,114.684 67.5,116.5C 66.7579,117.287 65.9246,117.953 65,118.5C 63.5457,125.138 62.379,125.138 61.5,118.5C 59.4176,118.472 57.5843,119.139 56,120.5C 55.8648,118.078 56.3648,115.745 57.5,113.5C 83.3858,75.6113 117.386,47.6113 159.5,29.5C 164.834,29.0836 169.834,27.5836 174.5,25C 177.694,24.4077 180.861,24.5743 184,25.5C 184.833,25.1667 185.667,24.8333 186.5,24.5C 185.693,22.4218 186.359,20.7551 188.5,19.5 Z"/></g>
<g><path style="opacity:1" fill="#56b14a" d="M 172.5,42.5 C 157.971,48.7649 143.971,56.0982 130.5,64.5C 130.369,63.7611 130.536,63.0944 131,62.5C 133.071,60.5625 135.238,58.8959 137.5,57.5C 138.289,57.2172 138.956,56.7172 139.5,56C 138.495,54.4933 137.162,53.3267 135.5,52.5C 139.39,48.4488 142.056,49.1155 143.5,54.5C 145.58,53.9556 147.58,53.1223 149.5,52C 148.833,51.6667 148.167,51.3333 147.5,51C 151.148,50.89 153.815,50.0566 155.5,48.5C 155.5,47.5 155.5,46.5 155.5,45.5C 156.833,45.5 158.167,45.5 159.5,45.5C 163.874,44.6564 168.207,43.6564 172.5,42.5 Z"/></g>
<g><path style="opacity:1" fill="#376840" d="M 362.5,44.5 C 375.383,52.7179 387.383,62.0513 398.5,72.5C 395.286,71.5596 392.286,70.0596 389.5,68C 387.963,66.8904 387.297,65.3904 387.5,63.5C 384.296,61.9843 380.963,60.6509 377.5,59.5C 375.785,56.1283 373.285,54.795 370,55.5C 367.961,51.3914 365.461,47.7248 362.5,44.5 Z"/></g>
<g><path style="opacity:1" fill="#51b23d" d="M 137.5,57.5 C 135.238,58.8959 133.071,60.5625 131,62.5C 130.536,63.0944 130.369,63.7611 130.5,64.5C 129.5,64.5 128.5,64.5 127.5,64.5C 127.719,63.325 127.386,62.325 126.5,61.5C 123.142,63.6789 119.475,65.0122 115.5,65.5C 115.358,68.617 114.024,71.117 111.5,73C 111.833,73.3333 112.167,73.6667 112.5,74C 109.684,75.8167 107.184,77.9834 105,80.5C 102.465,81.5349 99.9646,82.5349 97.5,83.5C 98.6716,81.1561 98.6716,78.8228 97.5,76.5C 102.773,75.556 106.107,72.556 107.5,67.5C 109.492,67.3285 111.158,67.9951 112.5,69.5C 113.734,67.6017 113.401,65.935 111.5,64.5C 114.26,62.9566 116.594,60.9566 118.5,58.5C 120.647,60.0331 122.814,60.6997 125,60.5C 126.487,59.7471 126.654,58.9138 125.5,58C 126.931,57.5348 128.097,56.7014 129,55.5C 129.368,56.91 130.201,57.91 131.5,58.5C 133.409,57.6518 135.409,57.3184 137.5,57.5 Z"/></g>
<g><path style="opacity:1" fill="#476e4e" d="M 347.5,55.5 C 349.451,55.2267 350.951,55.8934 352,57.5C 352.333,57.1667 352.667,56.8333 353,56.5C 353.667,57.8333 354.667,58.8333 356,59.5C 357.715,61.9354 358.882,64.6021 359.5,67.5C 355.93,62.9841 351.93,58.9841 347.5,55.5 Z"/></g>
<g><path style="opacity:1" fill="#37653e" d="M 359.5,67.5 C 360.552,67.3505 361.552,67.5172 362.5,68C 364.551,72.7497 368.218,74.7497 373.5,74C 374.293,75.0852 374.96,76.2519 375.5,77.5C 381.243,78.6021 381.743,80.6021 377,83.5C 375.989,82.6634 374.822,82.33 373.5,82.5C 373.878,84.921 374.545,87.2543 375.5,89.5C 374.833,89.5 374.167,89.5 373.5,89.5C 369.228,81.8991 364.561,74.5657 359.5,67.5 Z"/></g>
<g><path style="opacity:1" fill="#58b34a" d="M 130.5,64.5 C 123.568,69.6456 116.568,74.8123 109.5,80C 95.7674,93.0536 83.1008,106.887 71.5,121.5C 71.5,120.167 71.5,118.833 71.5,117.5C 72.5,117.5 73.5,117.5 74.5,117.5C 74.1667,114.833 73.8333,112.167 73.5,109.5C 76.8044,108.856 78.1378,106.856 77.5,103.5C 79.9424,103.646 80.6091,102.813 79.5,101C 80.5955,99.3247 82.0955,98.158 84,97.5C 84.4828,96.552 84.6495,95.552 84.5,94.5C 85.8734,94.6567 87.2068,94.49 88.5,94C 89.8146,92.6054 89.4812,91.6054 87.5,91C 89.318,88.5103 91.6513,86.6769 94.5,85.5C 96.3957,86.6394 97.3957,85.9728 97.5,83.5C 99.9646,82.5349 102.465,81.5349 105,80.5C 107.184,77.9834 109.684,75.8167 112.5,74C 112.167,73.6667 111.833,73.3333 111.5,73C 114.024,71.117 115.358,68.617 115.5,65.5C 119.475,65.0122 123.142,63.6789 126.5,61.5C 127.386,62.325 127.719,63.325 127.5,64.5C 128.5,64.5 129.5,64.5 130.5,64.5 Z"/></g>
<g><path style="opacity:1" fill="#fdfdfd" d="M 396.5,94.5 C 400.757,97.2508 404.59,100.584 408,104.5C 425.858,124.546 439.358,147.213 448.5,172.5C 452.325,184.305 455.325,196.305 457.5,208.5C 457.45,214.389 458.116,220.056 459.5,225.5C 459.5,235.167 459.5,244.833 459.5,254.5C 459.073,258.824 458.739,263.158 458.5,267.5C 457.232,269.905 456.565,272.572 456.5,275.5C 455.841,278.455 455.508,281.455 455.5,284.5C 454.076,286.515 453.41,288.848 453.5,291.5C 448.989,309.707 442.322,327.04 433.5,343.5C 421.898,364.453 406.898,382.786 388.5,398.5C 381.197,399.497 373.863,399.831 366.5,399.5C 354.819,399.566 343.152,399.233 331.5,398.5C 328.794,398.425 326.127,398.092 323.5,397.5C 317.809,396.628 312.142,395.628 306.5,394.5C 300.249,392.352 293.916,390.352 287.5,388.5C 283.246,385.971 278.579,384.305 273.5,383.5C 272.588,382.262 272.421,380.928 273,379.5C 275.448,378.027 277.948,376.693 280.5,375.5C 297.938,365.392 313.938,353.392 328.5,339.5C 332.5,336.167 336.167,332.5 339.5,328.5C 375.041,291.97 396.708,248.304 404.5,197.5C 404.5,197.167 404.5,196.833 404.5,196.5C 406.153,189.738 406.82,182.738 406.5,175.5C 407.817,165.402 407.817,155.402 406.5,145.5C 406.094,137.396 404.927,129.396 403,121.5C 400.392,113.179 397.892,104.846 395.5,96.5C 395.328,95.5084 395.662,94.8417 396.5,94.5 Z"/></g>
<g><path style="opacity:1" fill="#bcc5bf" d="M 384.5,120.5 C 385.924,122.515 386.59,124.848 386.5,127.5C 385.076,125.485 384.41,123.152 384.5,120.5 Z"/></g>
<g><path style="opacity:1" fill="#416a4c" d="M 373.5,89.5 C 374.167,89.5 374.833,89.5 375.5,89.5C 376.743,93.1957 378.743,96.3623 381.5,99C 383.166,102.809 383.999,106.976 384,111.5C 385.943,111.959 387.276,110.959 388,108.5C 390.33,111.459 390.996,114.793 390,118.5C 389.201,114.576 388.701,114.576 388.5,118.5C 388.75,121.867 389.75,124.867 391.5,127.5C 391.67,128.822 391.337,129.989 390.5,131C 391.894,131.956 392.561,133.289 392.5,135C 391.468,137.217 391.468,139.383 392.5,141.5C 391.855,151.962 391.189,162.295 390.5,172.5C 390.666,162.828 390.5,153.161 390,143.5C 389.715,137.946 388.549,132.612 386.5,127.5C 386.59,124.848 385.924,122.515 384.5,120.5C 383.828,116.812 382.995,113.145 382,109.5C 379.467,102.743 376.634,96.0766 373.5,89.5 Z"/></g>
<g><path style="opacity:1" fill="#547a5a" d="M 394.5,96.5 C 394.833,96.5 395.167,96.5 395.5,96.5C 397.892,104.846 400.392,113.179 403,121.5C 404.927,129.396 406.094,137.396 406.5,145.5C 404.548,136.632 402.715,127.632 401,118.5C 400.583,117.244 399.75,116.577 398.5,116.5C 398.048,113.797 397.381,111.13 396.5,108.5C 394.953,107.232 393.953,105.565 393.5,103.5C 394.374,101.253 394.708,98.9201 394.5,96.5 Z"/></g>
<g><path style="opacity:1" fill="#4cb241" d="M 73.5,109.5 C 73.8333,112.167 74.1667,114.833 74.5,117.5C 73.5,117.5 72.5,117.5 71.5,117.5C 71.5,118.833 71.5,120.167 71.5,121.5C 71.5,121.833 71.5,122.167 71.5,122.5C 70.1667,122.5 68.8333,122.5 67.5,122.5C 66.2002,128.367 63.3669,133.367 59,137.5C 57.1862,143.949 54.5195,149.949 51,155.5C 50,156.833 49,156.833 48,155.5C 46.2319,157.878 46.0652,160.378 47.5,163C 47.4666,165.569 46.2999,167.403 44,168.5C 43.6667,171.833 43.3333,175.167 43,178.5C 41.5,176.667 40,174.833 38.5,173C 39.2669,170.051 38.1002,167.884 35,166.5C 34.8333,164.833 34.6667,163.167 34.5,161.5C 36.0685,157.308 37.0685,152.974 37.5,148.5C 42.6894,135.866 49.356,124.199 57.5,113.5C 56.3648,115.745 55.8648,118.078 56,120.5C 57.5843,119.139 59.4176,118.472 61.5,118.5C 62.379,125.138 63.5457,125.138 65,118.5C 65.9246,117.953 66.7579,117.287 67.5,116.5C 65.5586,114.684 64.8919,112.684 65.5,110.5C 67.7938,111.706 70.1272,112.706 72.5,113.5C 72.2322,111.901 72.5655,110.568 73.5,109.5 Z"/></g>
<g><path style="opacity:1" fill="#37673e" d="M 399.5,72.5 C 455.123,121.792 480.456,183.792 475.5,258.5C 472.763,265.427 471.263,272.761 471,280.5C 469.87,284.557 468.537,288.557 467,292.5C 465.869,290.275 465.036,287.942 464.5,285.5C 464.761,281.326 464.928,276.992 465,272.5C 463.155,271.95 461.655,270.95 460.5,269.5C 461.78,267.298 461.78,265.132 460.5,263C 461.061,261.324 462.061,259.991 463.5,259C 462.876,247.71 462.543,236.21 462.5,224.5C 461.871,221.603 460.871,218.936 459.5,216.5C 458.527,214.052 458.194,211.385 458.5,208.5C 457.907,200.493 457.24,192.493 456.5,184.5C 455.325,184.719 454.325,184.386 453.5,183.5C 453.15,179.14 451.483,175.473 448.5,172.5C 439.358,147.213 425.858,124.546 408,104.5C 404.59,100.584 400.757,97.2508 396.5,94.5C 396.052,92.5354 395.052,92.2021 393.5,93.5C 394.127,94.4168 394.461,95.4168 394.5,96.5C 394.708,98.9201 394.374,101.253 393.5,103.5C 393.953,105.565 394.953,107.232 396.5,108.5C 397.381,111.13 398.048,113.797 398.5,116.5C 397.761,116.369 397.094,116.536 396.5,117C 397.711,117.893 397.711,118.726 396.5,119.5C 395.377,117.711 394.044,117.378 392.5,118.5C 395.077,120.92 396.077,123.92 395.5,127.5C 394.167,127.5 392.833,127.5 391.5,127.5C 389.75,124.867 388.75,121.867 388.5,118.5C 388.701,114.576 389.201,114.576 390,118.5C 390.996,114.793 390.33,111.459 388,108.5C 387.276,110.959 385.943,111.959 384,111.5C 383.999,106.976 383.166,102.809 381.5,99C 378.743,96.3623 376.743,93.1957 375.5,89.5C 377.053,91.385 379.053,92.385 381.5,92.5C 381.238,91.0222 381.571,89.6888 382.5,88.5C 383.833,90.1667 385.167,91.8333 386.5,93.5C 387.429,92.3112 387.762,90.9778 387.5,89.5C 389.46,88.8617 391.293,88.8617 393,89.5C 393.308,88.6919 393.808,88.0253 394.5,87.5C 396.101,88.1654 397.601,88.4988 399,88.5C 399.368,87.09 400.201,86.09 401.5,85.5C 404.461,86.1831 404.795,87.0164 402.5,88C 405.348,90.521 408.348,90.8543 411.5,89C 409.833,87.8333 408.167,86.6667 406.5,85.5C 405.758,83.8918 405.591,82.2251 406,80.5C 403.667,79.5 402,77.8333 401,75.5C 400.667,75.8333 400.333,76.1667 400,76.5C 399.51,75.2068 399.343,73.8734 399.5,72.5 Z"/></g>
<g><path style="opacity:1" fill="#bac9bc" d="M 396.5,94.5 C 395.662,94.8417 395.328,95.5084 395.5,96.5C 395.167,96.5 394.833,96.5 394.5,96.5C 394.461,95.4168 394.127,94.4168 393.5,93.5C 395.052,92.2021 396.052,92.5354 396.5,94.5 Z"/></g>
<g><path style="opacity:1" fill="#4a6c52" d="M 448.5,172.5 C 451.483,175.473 453.15,179.14 453.5,183.5C 454.325,184.386 455.325,184.719 456.5,184.5C 457.24,192.493 457.907,200.493 458.5,208.5C 458.167,208.5 457.833,208.5 457.5,208.5C 455.325,196.305 452.325,184.305 448.5,172.5 Z"/></g>
<g><path style="opacity:1" fill="#55b14b" d="M 71.5,122.5 C 58.3066,142.557 48.64,164.223 42.5,187.5C 41.0762,189.515 40.4095,191.848 40.5,194.5C 39.5916,198.758 38.925,203.092 38.5,207.5C 37.8333,210.167 37.1667,212.833 36.5,215.5C 36.8629,205.83 37.3629,196.163 38,186.5C 41.3333,184.167 41.3333,181.833 38,179.5C 37.6827,181.301 37.016,181.634 36,180.5C 36.4325,176.179 34.9325,172.846 31.5,170.5C 30.1195,171 29.4528,172 29.5,173.5C 30.6888,176.043 32.0222,178.543 33.5,181C 32.9747,181.692 32.3081,182.192 31.5,182.5C 31.5105,181.559 31.0105,180.892 30,180.5C 28.9889,181.056 28.1556,181.722 27.5,182.5C 27.5,181.167 27.5,179.833 27.5,178.5C 29.4495,167.942 32.7829,157.942 37.5,148.5C 37.0685,152.974 36.0685,157.308 34.5,161.5C 34.6667,163.167 34.8333,164.833 35,166.5C 38.1002,167.884 39.2669,170.051 38.5,173C 40,174.833 41.5,176.667 43,178.5C 43.3333,175.167 43.6667,171.833 44,168.5C 46.2999,167.403 47.4666,165.569 47.5,163C 46.0652,160.378 46.2319,157.878 48,155.5C 49,156.833 50,156.833 51,155.5C 54.5195,149.949 57.1862,143.949 59,137.5C 63.3669,133.367 66.2002,128.367 67.5,122.5C 68.8333,122.5 70.1667,122.5 71.5,122.5 Z"/></g>
<g><path style="opacity:1" fill="#c5ddc0" d="M 42.5,187.5 C 42.5905,190.152 41.9238,192.485 40.5,194.5C 40.4095,191.848 41.0762,189.515 42.5,187.5 Z"/></g>
<g><path style="opacity:1" fill="#4e7b55" d="M 406.5,175.5 C 406.82,182.738 406.153,189.738 404.5,196.5C 404.489,194.983 403.823,193.816 402.5,193C 403,192.5 403.5,192 404,191.5C 404.774,186.012 405.607,180.679 406.5,175.5 Z"/></g>
<g><path style="opacity:1" fill="#336b3d" d="M 398.5,116.5 C 399.75,116.577 400.583,117.244 401,118.5C 402.715,127.632 404.548,136.632 406.5,145.5C 407.817,155.402 407.817,165.402 406.5,175.5C 405.607,180.679 404.774,186.012 404,191.5C 403.5,192 403,192.5 402.5,193C 403.823,193.816 404.489,194.983 404.5,196.5C 404.5,196.833 404.5,197.167 404.5,197.5C 403.883,197.611 403.383,197.944 403,198.5C 402.976,202.882 401.809,206.882 399.5,210.5C 399.587,207.613 399.254,204.613 398.5,201.5C 397.702,203.078 397.202,204.744 397,206.5C 396,207.833 395,207.833 394,206.5C 393.405,210.082 392.071,210.416 390,207.5C 389.667,208.167 389.333,208.833 389,209.5C 388.506,207.866 388.34,206.199 388.5,204.5C 389.604,197.256 390.271,189.922 390.5,182.5C 390.5,179.167 390.5,175.833 390.5,172.5C 391.189,162.295 391.855,151.962 392.5,141.5C 391.468,139.383 391.468,137.217 392.5,135C 392.561,133.289 391.894,131.956 390.5,131C 391.337,129.989 391.67,128.822 391.5,127.5C 392.833,127.5 394.167,127.5 395.5,127.5C 396.077,123.92 395.077,120.92 392.5,118.5C 394.044,117.378 395.377,117.711 396.5,119.5C 397.711,118.726 397.711,117.893 396.5,117C 397.094,116.536 397.761,116.369 398.5,116.5 Z"/></g>
<g><path style="opacity:1" fill="#4e7857" d="M 240.5,178.5 C 244.981,177.352 249.648,177.185 254.5,178C 255.406,179.699 255.739,181.533 255.5,183.5C 255.5,207.5 255.5,231.5 255.5,255.5C 254.504,241.677 254.171,227.677 254.5,213.5C 254.667,202.162 254.5,190.828 254,179.5C 249.599,178.533 245.099,178.2 240.5,178.5 Z"/></g>
<g><path style="opacity:1" fill="#65ba60" d="M 27.5,178.5 C 27.5,179.833 27.5,181.167 27.5,182.5C 25.7181,188.226 24.7181,194.226 24.5,200.5C 22.8878,208.177 21.2212,215.843 19.5,223.5C 19.8498,207.923 22.5164,192.923 27.5,178.5 Z"/></g>
<g><path style="opacity:1" fill="#507e5d" d="M 390.5,182.5 C 390.271,189.922 389.604,197.256 388.5,204.5C 387.834,207.689 387.167,211.023 386.5,214.5C 385.817,214.863 385.15,215.196 384.5,215.5C 386.51,204.405 388.51,193.405 390.5,182.5 Z"/></g>
<g><path style="opacity:1" fill="#46b138" d="M 36.5,215.5 C 36.5,215.833 36.5,216.167 36.5,216.5C 35.8347,218.698 35.1681,221.031 34.5,223.5C 33.501,235.815 33.1676,248.149 33.5,260.5C 32.6851,261.837 31.5185,262.837 30,263.5C 29.8184,266.226 29.3184,268.893 28.5,271.5C 26.8572,268.692 25.3572,265.692 24,262.5C 23.6667,262.833 23.3333,263.167 23,263.5C 22.2917,262.619 21.4584,261.953 20.5,261.5C 20.3335,249.829 20.5001,238.162 21,226.5C 22.4949,217.921 23.6615,209.255 24.5,200.5C 24.7181,194.226 25.7181,188.226 27.5,182.5C 28.1556,181.722 28.9889,181.056 30,180.5C 31.0105,180.892 31.5105,181.559 31.5,182.5C 32.3081,182.192 32.9747,181.692 33.5,181C 32.0222,178.543 30.6888,176.043 29.5,173.5C 29.4528,172 30.1195,171 31.5,170.5C 34.9325,172.846 36.4325,176.179 36,180.5C 37.016,181.634 37.6827,181.301 38,179.5C 41.3333,181.833 41.3333,184.167 38,186.5C 37.3629,196.163 36.8629,205.83 36.5,215.5 Z"/></g>
<g><path style="opacity:1" fill="#56b24a" d="M 24.5,200.5 C 23.6615,209.255 22.4949,217.921 21,226.5C 20.5001,238.162 20.3335,249.829 20.5,261.5C 20.5,261.833 20.5,262.167 20.5,262.5C 20.1667,262.5 19.8333,262.5 19.5,262.5C 18.1871,249.507 18.1871,236.507 19.5,223.5C 21.2212,215.843 22.8878,208.177 24.5,200.5 Z"/></g>
<g><path style="opacity:1" fill="#547b5e" d="M 310.5,217.5 C 314.9,216.177 319.4,216.177 324,217.5C 324.944,224.75 324.444,231.75 322.5,238.5C 322.751,232.108 322.418,225.775 321.5,219.5C 321.389,218.883 321.056,218.383 320.5,218C 317.183,217.502 313.85,217.335 310.5,217.5 Z"/></g>
<g><path style="opacity:1" fill="#3a6b45" d="M 310.5,217.5 C 313.85,217.335 317.183,217.502 320.5,218C 321.056,218.383 321.389,218.883 321.5,219.5C 318.518,219.827 315.685,219.827 313,219.5C 312.342,221.108 312.842,222.275 314.5,223C 313.552,223.483 312.552,223.649 311.5,223.5C 311.5,224.833 311.5,226.167 311.5,227.5C 309.516,227.383 307.85,228.05 306.5,229.5C 307.447,231.059 308.113,232.726 308.5,234.5C 307.78,239.137 307.28,243.803 307,248.5C 305.974,251.239 304.474,253.572 302.5,255.5C 301.833,255.5 301.167,255.5 300.5,255.5C 303.639,249.886 305.639,243.886 306.5,237.5C 302.968,237.31 299.635,237.977 296.5,239.5C 297.677,237.968 299.011,236.468 300.5,235C 298.595,234.174 298.261,233.007 299.5,231.5C 300.192,232.025 300.692,232.692 301,233.5C 301.495,231.527 301.662,229.527 301.5,227.5C 299.401,228.231 297.401,228.231 295.5,227.5C 296.853,226.476 297.52,225.143 297.5,223.5C 299.604,223.799 301.604,223.466 303.5,222.5C 300.812,221.203 298.312,221.536 296,223.5C 294.644,222.62 293.144,222.286 291.5,222.5C 297.501,219.96 303.835,218.294 310.5,217.5 Z"/></g>
<g><path style="opacity:1" fill="#b4d4b0" d="M 38.5,207.5 C 38.624,213.069 37.9573,218.402 36.5,223.5C 36.5,221.167 36.5,218.833 36.5,216.5C 36.5,216.167 36.5,215.833 36.5,215.5C 37.1667,212.833 37.8333,210.167 38.5,207.5 Z"/></g>
<g><path style="opacity:1" fill="#33693e" d="M 321.5,219.5 C 322.418,225.775 322.751,232.108 322.5,238.5C 320.94,253.621 314.606,266.288 303.5,276.5C 303.506,273.482 304.506,270.816 306.5,268.5C 304.345,268.162 302.011,268.162 299.5,268.5C 300.041,264.261 302.041,260.761 305.5,258C 305.252,256.251 304.252,255.418 302.5,255.5C 304.474,253.572 305.974,251.239 307,248.5C 307.28,243.803 307.78,239.137 308.5,234.5C 308.113,232.726 307.447,231.059 306.5,229.5C 307.85,228.05 309.516,227.383 311.5,227.5C 311.5,226.167 311.5,224.833 311.5,223.5C 312.552,223.649 313.552,223.483 314.5,223C 312.842,222.275 312.342,221.108 313,219.5C 315.685,219.827 318.518,219.827 321.5,219.5 Z"/></g>
<g><path style="opacity:1" fill="#bcc6c0" d="M 457.5,208.5 C 457.833,208.5 458.167,208.5 458.5,208.5C 458.194,211.385 458.527,214.052 459.5,216.5C 459.5,219.5 459.5,222.5 459.5,225.5C 458.116,220.056 457.45,214.389 457.5,208.5 Z"/></g>
<g><path style="opacity:1" fill="#35663f" d="M 240.5,178.5 C 245.099,178.2 249.599,178.533 254,179.5C 254.5,190.828 254.667,202.162 254.5,213.5C 252.18,216.321 251.013,219.654 251,223.5C 250.667,222.167 250.333,220.833 250,219.5C 249.837,221.676 249.004,223.509 247.5,225C 248.293,226.085 248.96,227.252 249.5,228.5C 247.851,229.648 246.351,230.981 245,232.5C 242.174,236.73 241.34,239.063 242.5,239.5C 243.833,239.5 245.167,239.5 246.5,239.5C 246.332,244.532 245.332,249.366 243.5,254C 244.022,254.95 244.689,255.784 245.5,256.5C 245.062,257.506 244.396,257.506 243.5,256.5C 241.862,257.705 241.529,259.038 242.5,260.5C 242.043,261.298 241.376,261.631 240.5,261.5C 240.5,233.833 240.5,206.167 240.5,178.5 Z"/></g>
<g><path style="opacity:1" fill="#316b38" d="M 245.5,179.5 C 249.271,178.774 251.937,180.107 253.5,183.5C 253.192,184.308 252.692,184.975 252,185.5C 251.73,189.373 251.23,193.206 250.5,197C 251.368,198.865 251.034,200.698 249.5,202.5C 248.675,203.386 247.675,203.719 246.5,203.5C 246.587,200.402 246.087,200.068 245,202.5C 244.349,200.765 244.515,199.098 245.5,197.5C 244.833,196.5 244.167,195.5 243.5,194.5C 243.687,191.032 243.687,187.532 243.5,184C 243.519,182.167 244.185,180.667 245.5,179.5 Z"/></g>
<g><path style="opacity:1" fill="#466a50" d="M 459.5,216.5 C 460.871,218.936 461.871,221.603 462.5,224.5C 461.5,234.5 460.5,244.5 459.5,254.5C 459.5,244.833 459.5,235.167 459.5,225.5C 459.5,222.5 459.5,219.5 459.5,216.5 Z"/></g>
<g><path style="opacity:1" fill="#2f6238" d="M 296.5,239.5 C 291.998,241.008 287.998,243.341 284.5,246.5C 285.28,243.899 286.946,241.899 289.5,240.5C 287.926,239.369 286.259,239.202 284.5,240C 281.333,242.833 278.167,245.667 275,248.5C 273.798,250.677 273.298,253.011 273.5,255.5C 271.801,255.34 270.134,255.506 268.5,256C 267.663,258.589 265.997,260.422 263.5,261.5C 262.353,261.182 261.519,260.516 261,259.5C 258.329,262.021 256.495,261.354 255.5,257.5C 256.791,257.737 257.791,257.404 258.5,256.5C 260.178,253.893 262.344,251.559 265,249.5C 265.456,245.706 267.456,243.039 271,241.5C 271.333,240.167 271.667,238.833 272,237.5C 273.785,236.76 275.618,236.093 277.5,235.5C 279.423,231.915 282.423,229.915 286.5,229.5C 288.192,227.149 289.858,224.815 291.5,222.5C 293.144,222.286 294.644,222.62 296,223.5C 298.312,221.536 300.812,221.203 303.5,222.5C 301.604,223.466 299.604,223.799 297.5,223.5C 297.52,225.143 296.853,226.476 295.5,227.5C 297.401,228.231 299.401,228.231 301.5,227.5C 301.662,229.527 301.495,231.527 301,233.5C 300.692,232.692 300.192,232.025 299.5,231.5C 298.261,233.007 298.595,234.174 300.5,235C 299.011,236.468 297.677,237.968 296.5,239.5 Z"/></g>
<g><path style="opacity:1" fill="#f9faf9" d="M 300.5,255.5 C 292.481,265.673 282.147,272.007 269.5,274.5C 269.689,269.433 271.189,264.766 274,260.5C 277.266,255.625 280.766,250.958 284.5,246.5C 287.998,243.341 291.998,241.008 296.5,239.5C 299.635,237.977 302.968,237.31 306.5,237.5C 305.639,243.886 303.639,249.886 300.5,255.5 Z"/></g>
<g><path style="opacity:1" fill="#ced6d0" d="M 255.5,183.5 C 255.836,208.017 256.836,232.35 258.5,256.5C 257.791,257.404 256.791,257.737 255.5,257.5C 255.5,256.833 255.5,256.167 255.5,255.5C 255.5,231.5 255.5,207.5 255.5,183.5 Z"/></g>
<g><path style="opacity:1" fill="#336639" d="M 254.5,213.5 C 254.171,227.677 254.504,241.677 255.5,255.5C 255.5,256.167 255.5,256.833 255.5,257.5C 254.108,255.076 252.275,253.743 250,253.5C 249.081,256.778 247.914,259.945 246.5,263C 247.451,263.718 247.617,264.551 247,265.5C 244.5,266.667 242.667,268.5 241.5,271C 240.234,271.309 239.067,271.809 238,272.5C 235.568,271.707 233.234,271.374 231,271.5C 230.316,272.784 230.483,273.951 231.5,275C 233.833,275.333 236.167,275.667 238.5,276C 239.191,277.067 239.691,278.234 240,279.5C 241.916,277.791 244.082,276.457 246.5,275.5C 248.016,280.039 247.683,284.372 245.5,288.5C 247.185,290.017 248.685,291.684 250,293.5C 250.333,291.5 250.667,289.5 251,287.5C 251.47,289.774 252.47,291.774 254,293.5C 257.836,291.611 262.003,290.945 266.5,291.5C 263.167,292.167 259.833,292.833 256.5,293.5C 255.833,293.5 255.5,293.833 255.5,294.5C 254.288,295.23 253.288,296.23 252.5,297.5C 251.811,300.408 250.645,303.075 249,305.5C 248.29,304.027 247.124,303.36 245.5,303.5C 245.849,299.837 245.182,297.17 243.5,295.5C 245.02,290.687 243.687,289.687 239.5,292.5C 235.951,292.053 231.951,292.053 227.5,292.5C 225.784,292.371 224.117,292.038 222.5,291.5C 221.251,289.864 219.584,288.697 217.5,288C 214.183,287.502 210.85,287.335 207.5,287.5C 207.489,285.983 206.823,284.816 205.5,284C 202.814,282.632 200.147,281.299 197.5,280C 196.134,278.4 195.134,276.567 194.5,274.5C 192.898,275.55 192.065,274.883 192,272.5C 190.434,273.061 189.101,272.394 188,270.5C 189.233,268.192 190.4,265.692 191.5,263C 191.32,260.759 190.487,260.259 189,261.5C 188.667,260.5 188.333,259.5 188,258.5C 187.5,259.667 186.667,260.5 185.5,261C 186.784,262.297 186.617,263.464 185,264.5C 181.301,261.224 181.801,259.557 186.5,259.5C 186.33,258.178 186.663,257.011 187.5,256C 185.268,254.011 183.768,251.511 183,248.5C 182.195,250.901 181.362,250.734 180.5,248C 180.833,247.667 181.167,247.333 181.5,247C 179.757,244.147 178.59,240.981 178,237.5C 173.409,232.737 171.909,227.07 173.5,220.5C 174.607,219.978 175.774,219.645 177,219.5C 184.193,220.121 191.36,220.954 198.5,222C 201.186,223.368 203.853,224.701 206.5,226C 205.643,226.689 204.977,227.522 204.5,228.5C 206.04,228.694 207.706,229.527 209.5,231C 208.833,231.333 208.167,231.667 207.5,232C 207.727,233.135 208.06,234.302 208.5,235.5C 210.646,232.262 213.312,231.762 216.5,234C 217.889,235.957 219.389,237.79 221,239.5C 222.261,240.658 223.427,240.658 224.5,239.5C 230.84,244.843 235.174,251.51 237.5,259.5C 237.821,261.048 238.821,261.715 240.5,261.5C 241.376,261.631 242.043,261.298 242.5,260.5C 241.529,259.038 241.862,257.705 243.5,256.5C 244.396,257.506 245.062,257.506 245.5,256.5C 244.689,255.784 244.022,254.95 243.5,254C 245.332,249.366 246.332,244.532 246.5,239.5C 245.167,239.5 243.833,239.5 242.5,239.5C 241.34,239.063 242.174,236.73 245,232.5C 246.351,230.981 247.851,229.648 249.5,228.5C 248.96,227.252 248.293,226.085 247.5,225C 249.004,223.509 249.837,221.676 250,219.5C 250.333,220.833 250.667,222.167 251,223.5C 251.013,219.654 252.18,216.321 254.5,213.5 Z"/></g>
<g><path style="opacity:1" fill="#f9fafa" d="M 187.5,237.5 C 194.201,237.682 200.201,239.849 205.5,244C 212.841,250.566 218.841,258.066 223.5,266.5C 224.219,268.764 224.552,271.097 224.5,273.5C 216.049,273.795 208.715,271.128 202.5,265.5C 194.371,257.912 189.371,248.578 187.5,237.5 Z"/></g>
<g><path style="opacity:1" fill="#426b49" d="M 223.5,266.5 C 218.841,258.066 212.841,250.566 205.5,244C 200.201,239.849 194.201,237.682 187.5,237.5C 187.577,236.25 188.244,235.417 189.5,235C 194.072,234.113 198.405,234.78 202.5,237C 204.447,240.07 206.947,242.57 210,244.5C 211.049,243.483 212.216,243.316 213.5,244C 214.299,246.297 215.466,248.797 217,251.5C 218.324,252.88 219.657,253.214 221,252.5C 221.595,253.899 221.428,255.232 220.5,256.5C 222.668,259.498 223.668,262.831 223.5,266.5 Z"/></g>
<g><path style="opacity:1" fill="#496e50" d="M 187.5,237.5 C 189.371,248.578 194.371,257.912 202.5,265.5C 200.174,264.047 197.674,262.714 195,261.5C 193.872,259.655 193.372,257.655 193.5,255.5C 192.178,255.67 191.011,255.337 190,254.5C 189.709,250.945 188.375,247.945 186,245.5C 185.333,243.167 185.333,240.833 186,238.5C 186.383,237.944 186.883,237.611 187.5,237.5 Z"/></g>
<g><path style="opacity:1" fill="#6e8d75" d="M 240.5,178.5 C 240.5,206.167 240.5,233.833 240.5,261.5C 238.821,261.715 237.821,261.048 237.5,259.5C 239.164,232.682 240.164,205.682 240.5,178.5 Z"/></g>
<g><path style="opacity:1" fill="#426648" d="M 183.5,218.5 C 179.818,218.335 176.152,218.501 172.5,219C 171.357,225.418 171.19,231.918 172,238.5C 174.414,243.875 176.081,249.541 177,255.5C 177.561,253.275 178.561,251.275 180,249.5C 180.309,250.766 180.809,251.933 181.5,253C 180.57,254.194 179.903,255.527 179.5,257C 181.632,261.432 183.632,265.932 185.5,270.5C 183.45,268.763 181.617,266.763 180,264.5C 171.788,249.939 168.621,234.272 170.5,217.5C 175.032,217.182 179.366,217.515 183.5,218.5 Z"/></g>
<g><path style="opacity:1" fill="#396640" d="M 183.5,218.5 C 200.442,219.469 214.109,226.469 224.5,239.5C 223.427,240.658 222.261,240.658 221,239.5C 219.389,237.79 217.889,235.957 216.5,234C 213.312,231.762 210.646,232.262 208.5,235.5C 208.06,234.302 207.727,233.135 207.5,232C 208.167,231.667 208.833,231.333 209.5,231C 207.706,229.527 206.04,228.694 204.5,228.5C 204.977,227.522 205.643,226.689 206.5,226C 203.853,224.701 201.186,223.368 198.5,222C 191.36,220.954 184.193,220.121 177,219.5C 175.774,219.645 174.607,219.978 173.5,220.5C 171.909,227.07 173.409,232.737 178,237.5C 178.59,240.981 179.757,244.147 181.5,247C 181.167,247.333 180.833,247.667 180.5,248C 181.362,250.734 182.195,250.901 183,248.5C 183.768,251.511 185.268,254.011 187.5,256C 186.663,257.011 186.33,258.178 186.5,259.5C 181.801,259.557 181.301,261.224 185,264.5C 186.617,263.464 186.784,262.297 185.5,261C 186.667,260.5 187.5,259.667 188,258.5C 188.333,259.5 188.667,260.5 189,261.5C 190.487,260.259 191.32,260.759 191.5,263C 190.4,265.692 189.233,268.192 188,270.5C 189.101,272.394 190.434,273.061 192,272.5C 192.065,274.883 192.898,275.55 194.5,274.5C 195.134,276.567 196.134,278.4 197.5,280C 200.147,281.299 202.814,282.632 205.5,284C 206.823,284.816 207.489,285.983 207.5,287.5C 198.399,284.059 191.066,278.393 185.5,270.5C 183.632,265.932 181.632,261.432 179.5,257C 179.903,255.527 180.57,254.194 181.5,253C 180.809,251.933 180.309,250.766 180,249.5C 178.561,251.275 177.561,253.275 177,255.5C 176.081,249.541 174.414,243.875 172,238.5C 171.19,231.918 171.357,225.418 172.5,219C 176.152,218.501 179.818,218.335 183.5,218.5 Z"/></g>
<g><path style="opacity:1" fill="#3f6a49" d="M 291.5,222.5 C 289.858,224.815 288.192,227.149 286.5,229.5C 282.423,229.915 279.423,231.915 277.5,235.5C 275.618,236.093 273.785,236.76 272,237.5C 271.667,238.833 271.333,240.167 271,241.5C 267.456,243.039 265.456,245.706 265,249.5C 262.344,251.559 260.178,253.893 258.5,256.5C 258.687,254.436 259.187,252.436 260,250.5C 267.967,238.274 278.467,228.941 291.5,222.5 Z"/></g>
<g><path style="opacity:1" fill="#2f6534" d="M 284.5,246.5 C 280.766,250.958 277.266,255.625 274,260.5C 271.189,264.766 269.689,269.433 269.5,274.5C 269.917,275.124 270.584,275.457 271.5,275.5C 276.041,273.82 280.707,272.653 285.5,272C 288.03,269.808 290.864,267.974 294,266.5C 295.281,263.553 297.281,261.219 300,259.5C 300.49,258.207 300.657,256.873 300.5,255.5C 301.167,255.5 301.833,255.5 302.5,255.5C 304.252,255.418 305.252,256.251 305.5,258C 302.041,260.761 300.041,264.261 299.5,268.5C 302.011,268.162 304.345,268.162 306.5,268.5C 304.506,270.816 303.506,273.482 303.5,276.5C 303.5,277.167 303.167,277.5 302.5,277.5C 298.004,280.123 293.171,282.123 288,283.5C 287.333,282.833 287.333,282.167 288,281.5C 290.996,280.028 291.829,277.862 290.5,275C 289.552,274.517 288.552,274.351 287.5,274.5C 288,278.493 286.5,280.16 283,279.5C 279.815,282.538 280.648,283.871 285.5,283.5C 285.5,284.5 285.5,285.5 285.5,286.5C 281.658,287.043 277.991,288.043 274.5,289.5C 272.519,289.563 270.852,288.896 269.5,287.5C 268.638,288.766 267.971,290.099 267.5,291.5C 267.167,291.5 266.833,291.5 266.5,291.5C 262.003,290.945 257.836,291.611 254,293.5C 252.47,291.774 251.47,289.774 251,287.5C 250.667,289.5 250.333,291.5 250,293.5C 248.685,291.684 247.185,290.017 245.5,288.5C 247.683,284.372 248.016,280.039 246.5,275.5C 244.082,276.457 241.916,277.791 240,279.5C 239.691,278.234 239.191,277.067 238.5,276C 236.167,275.667 233.833,275.333 231.5,275C 230.483,273.951 230.316,272.784 231,271.5C 233.234,271.374 235.568,271.707 238,272.5C 239.067,271.809 240.234,271.309 241.5,271C 242.667,268.5 244.5,266.667 247,265.5C 247.617,264.551 247.451,263.718 246.5,263C 247.914,259.945 249.081,256.778 250,253.5C 252.275,253.743 254.108,255.076 255.5,257.5C 256.495,261.354 258.329,262.021 261,259.5C 261.519,260.516 262.353,261.182 263.5,261.5C 265.997,260.422 267.663,258.589 268.5,256C 270.134,255.506 271.801,255.34 273.5,255.5C 273.298,253.011 273.798,250.677 275,248.5C 278.167,245.667 281.333,242.833 284.5,240C 286.259,239.202 287.926,239.369 289.5,240.5C 286.946,241.899 285.28,243.899 284.5,246.5 Z"/></g>
<g><path style="opacity:1" fill="#346e44" d="M 404.5,197.5 C 396.708,248.304 375.041,291.97 339.5,328.5C 339.884,326.071 340.551,323.737 341.5,321.5C 342.5,321.5 343.5,321.5 344.5,321.5C 343.597,319.391 342.763,317.391 342,315.5C 343.817,314.292 345.817,313.292 348,312.5C 348.561,313.022 349.228,313.355 350,313.5C 351.717,311.233 353.55,309.066 355.5,307C 353.74,303.194 351.907,299.361 350,295.5C 349.333,298.167 348.667,298.167 348,295.5C 347.617,296.056 347.117,296.389 346.5,296.5C 364.364,271.78 377.031,244.78 384.5,215.5C 385.15,215.196 385.817,214.863 386.5,214.5C 387.167,211.023 387.834,207.689 388.5,204.5C 388.34,206.199 388.506,207.866 389,209.5C 389.333,208.833 389.667,208.167 390,207.5C 392.071,210.416 393.405,210.082 394,206.5C 395,207.833 396,207.833 397,206.5C 397.202,204.744 397.702,203.078 398.5,201.5C 399.254,204.613 399.587,207.613 399.5,210.5C 401.809,206.882 402.976,202.882 403,198.5C 403.383,197.944 403.883,197.611 404.5,197.5 Z"/></g>
<g><path style="opacity:1" fill="#44734d" d="M 300.5,255.5 C 300.657,256.873 300.49,258.207 300,259.5C 297.281,261.219 295.281,263.553 294,266.5C 290.864,267.974 288.03,269.808 285.5,272C 280.707,272.653 276.041,273.82 271.5,275.5C 270.584,275.457 269.917,275.124 269.5,274.5C 282.147,272.007 292.481,265.673 300.5,255.5 Z"/></g>
<g><path style="opacity:1" fill="#50ac45" d="M 36.5,216.5 C 36.5,218.833 36.5,221.167 36.5,223.5C 36.0644,230.824 35.7311,238.157 35.5,245.5C 34.9779,254.163 36.1445,262.497 39,270.5C 41.8598,272.502 44.3598,274.835 46.5,277.5C 42.2793,275.628 38.2793,273.294 34.5,270.5C 34.4243,267.069 34.0909,263.735 33.5,260.5C 33.1676,248.149 33.501,235.815 34.5,223.5C 35.1681,221.031 35.8347,218.698 36.5,216.5 Z"/></g>
<g><path style="opacity:1" fill="#8da595" d="M 458.5,267.5 C 458.706,270.495 458.04,273.162 456.5,275.5C 456.565,272.572 457.232,269.905 458.5,267.5 Z"/></g>
<g><path style="opacity:1" fill="#3a6a41" d="M 302.5,277.5 C 292.352,285.667 280.685,290.334 267.5,291.5C 267.971,290.099 268.638,288.766 269.5,287.5C 270.852,288.896 272.519,289.563 274.5,289.5C 277.991,288.043 281.658,287.043 285.5,286.5C 285.5,285.5 285.5,284.5 285.5,283.5C 280.648,283.871 279.815,282.538 283,279.5C 286.5,280.16 288,278.493 287.5,274.5C 288.552,274.351 289.552,274.517 290.5,275C 291.829,277.862 290.996,280.028 288,281.5C 287.333,282.167 287.333,282.833 288,283.5C 293.171,282.123 298.004,280.123 302.5,277.5 Z"/></g>
<g><path style="opacity:1" fill="#3ba430" d="M 33.5,260.5 C 34.0909,263.735 34.4243,267.069 34.5,270.5C 38.2793,273.294 42.2793,275.628 46.5,277.5C 50.4819,280.152 54.1486,283.152 57.5,286.5C 57.487,290.65 59.487,293.15 63.5,294C 62.3595,294.741 62.3595,295.575 63.5,296.5C 61.604,297.466 59.604,297.799 57.5,297.5C 57.5,299.167 57.5,300.833 57.5,302.5C 56.1667,302.5 54.8333,302.5 53.5,302.5C 53.8981,298.241 51.8981,296.408 47.5,297C 45.8333,295.833 44.1667,294.667 42.5,293.5C 41.7554,291.253 40.422,289.42 38.5,288C 35.6706,285.173 32.3372,283.173 28.5,282C 26.3862,280.502 25.8862,278.669 27,276.5C 25.3853,275.614 23.8853,274.614 22.5,273.5C 21.5778,269.888 20.9111,266.221 20.5,262.5C 20.5,262.167 20.5,261.833 20.5,261.5C 21.4584,261.953 22.2917,262.619 23,263.5C 23.3333,263.167 23.6667,262.833 24,262.5C 25.3572,265.692 26.8572,268.692 28.5,271.5C 29.3184,268.893 29.8184,266.226 30,263.5C 31.5185,262.837 32.6851,261.837 33.5,260.5 Z"/></g>
<g><path style="opacity:1" fill="#3e8c3a" d="M 19.5,262.5 C 19.8333,262.5 20.1667,262.5 20.5,262.5C 20.9111,266.221 21.5778,269.888 22.5,273.5C 23.0382,276.189 23.7049,278.856 24.5,281.5C 26.8333,282.5 28.5,284.167 29.5,286.5C 31.772,287.485 34.1053,288.319 36.5,289C 38.6677,291.998 41.0011,294.831 43.5,297.5C 43.1667,297.5 42.8333,297.5 42.5,297.5C 40.0703,296.57 38.0703,295.07 36.5,293C 33.3081,292.803 30.3081,291.97 27.5,290.5C 26.5082,288.193 25.1749,286.193 23.5,284.5C 23.1667,284.5 22.8333,284.5 22.5,284.5C 21.0659,277.228 20.0659,269.895 19.5,262.5 Z"/></g>
<g><path style="opacity:1" fill="#547a5a" d="M 207.5,287.5 C 210.85,287.335 214.183,287.502 217.5,288C 219.584,288.697 221.251,289.864 222.5,291.5C 217.191,290.924 212.191,289.591 207.5,287.5 Z"/></g>
<g><path style="opacity:1" fill="#73927b" d="M 455.5,284.5 C 455.59,287.152 454.924,289.485 453.5,291.5C 453.41,288.848 454.076,286.515 455.5,284.5 Z"/></g>
<g><path style="opacity:1" fill="#336641" d="M 462.5,224.5 C 462.543,236.21 462.876,247.71 463.5,259C 462.061,259.991 461.061,261.324 460.5,263C 461.78,265.132 461.78,267.298 460.5,269.5C 461.655,270.95 463.155,271.95 465,272.5C 464.928,276.992 464.761,281.326 464.5,285.5C 465.036,287.942 465.869,290.275 467,292.5C 468.537,288.557 469.87,284.557 471,280.5C 471.263,272.761 472.763,265.427 475.5,258.5C 472.154,298.288 459.487,334.622 437.5,367.5C 438.317,364.521 439.151,361.521 440,358.5C 441.841,356.841 443.008,354.841 443.5,352.5C 440.833,353.167 438.167,353.833 435.5,354.5C 435.561,351.95 436.894,350.45 439.5,350C 437.199,347.997 437.199,346.163 439.5,344.5C 437.604,343.534 435.604,343.201 433.5,343.5C 442.322,327.04 448.989,309.707 453.5,291.5C 454.924,289.485 455.59,287.152 455.5,284.5C 455.508,281.455 455.841,278.455 456.5,275.5C 458.04,273.162 458.706,270.495 458.5,267.5C 458.739,263.158 459.073,258.824 459.5,254.5C 460.5,244.5 461.5,234.5 462.5,224.5 Z"/></g>
<g><path style="opacity:1" fill="#2e6934" d="M 23.5,284.5 C 25.1749,286.193 26.5082,288.193 27.5,290.5C 30.3081,291.97 33.3081,292.803 36.5,293C 38.0703,295.07 40.0703,296.57 42.5,297.5C 42.2882,299.384 41.2882,300.717 39.5,301.5C 42.2299,303.282 42.8966,305.615 41.5,308.5C 40.635,309.583 39.635,309.749 38.5,309C 37.9011,307.378 37.2344,305.878 36.5,304.5C 34.2256,302.276 32.3922,299.609 31,296.5C 26.1963,294.102 23.6963,290.102 23.5,284.5 Z"/></g>
<g><path style="opacity:1" fill="#41a337" d="M 22.5,273.5 C 23.8853,274.614 25.3853,275.614 27,276.5C 25.8862,278.669 26.3862,280.502 28.5,282C 32.3372,283.173 35.6706,285.173 38.5,288C 40.422,289.42 41.7554,291.253 42.5,293.5C 44.1667,294.667 45.8333,295.833 47.5,297C 51.8981,296.408 53.8981,298.241 53.5,302.5C 54.8333,302.5 56.1667,302.5 57.5,302.5C 57.5,300.833 57.5,299.167 57.5,297.5C 59.604,297.799 61.604,297.466 63.5,296.5C 62.3595,295.575 62.3595,294.741 63.5,294C 59.487,293.15 57.487,290.65 57.5,286.5C 62.8705,290.179 68.2039,293.846 73.5,297.5C 72.0222,297.238 70.6888,297.571 69.5,298.5C 67.942,300.956 65.942,302.956 63.5,304.5C 64.7658,305.362 66.0992,306.029 67.5,306.5C 65.4968,309.958 63.1634,309.791 60.5,306C 58.1457,305.153 55.8123,304.32 53.5,303.5C 49.9046,301.898 46.5712,299.898 43.5,297.5C 41.0011,294.831 38.6677,291.998 36.5,289C 34.1053,288.319 31.772,287.485 29.5,286.5C 28.5,284.167 26.8333,282.5 24.5,281.5C 23.7049,278.856 23.0382,276.189 22.5,273.5 Z"/></g>
<g><path style="opacity:1" fill="#fdfdfd" d="M 43.5,297.5 C 46.5712,299.898 49.9046,301.898 53.5,303.5C 59.2592,307.891 65.2592,312.057 71.5,316C 79.5677,319.742 87.5677,323.575 95.5,327.5C 95.8333,327.5 96.1667,327.5 96.5,327.5C 103.078,331.589 110.078,334.922 117.5,337.5C 131.421,343.695 145.421,349.695 159.5,355.5C 178.227,363.862 197.227,371.862 216.5,379.5C 217.694,380.272 218.694,381.272 219.5,382.5C 209.421,385.601 199.088,387.934 188.5,389.5C 174.522,390.388 160.522,390.722 146.5,390.5C 146.167,390.5 145.833,390.5 145.5,390.5C 138.668,389.269 131.668,388.269 124.5,387.5C 116.455,385.714 108.455,383.714 100.5,381.5C 96.3642,380.073 92.0309,378.907 87.5,378C 75.4037,363.081 64.737,347.248 55.5,330.5C 53.753,326.009 51.753,321.675 49.5,317.5C 46.568,311.104 44.568,304.437 43.5,297.5 Z"/></g>
<g><path style="opacity:1" fill="#386441" d="M 22.5,284.5 C 22.8333,284.5 23.1667,284.5 23.5,284.5C 23.6963,290.102 26.1963,294.102 31,296.5C 32.3922,299.609 34.2256,302.276 36.5,304.5C 37.809,309.861 37.809,315.028 36.5,320C 36.944,323.118 38.6107,324.951 41.5,325.5C 41.9272,328.376 42.5938,331.209 43.5,334C 42.9777,334.95 42.311,335.784 41.5,336.5C 44.9235,341.111 47.5902,346.111 49.5,351.5C 50.8139,350.687 51.9805,349.687 53,348.5C 53.3742,349.416 53.8742,350.25 54.5,351C 53.376,351.249 52.376,351.749 51.5,352.5C 54.3031,356.959 56.6365,361.626 58.5,366.5C 39.4976,342.472 27.4976,315.139 22.5,284.5 Z"/></g>
<g><path style="opacity:1" fill="#5aac4f" d="M 53.5,303.5 C 55.8123,304.32 58.1457,305.153 60.5,306C 63.1634,309.791 65.4968,309.958 67.5,306.5C 69.3955,307.703 71.3955,308.869 73.5,310C 71.0958,310.508 70.4291,311.675 71.5,313.5C 78.0273,317.13 84.694,320.463 91.5,323.5C 93.0792,324.667 94.4125,326 95.5,327.5C 87.5677,323.575 79.5677,319.742 71.5,316C 65.2592,312.057 59.2592,307.891 53.5,303.5 Z"/></g>
<g><path style="opacity:1" fill="#dae0dc" d="M 256.5,293.5 C 255.843,319.189 256.509,344.522 258.5,369.5C 257.791,370.404 256.791,370.737 255.5,370.5C 255.5,345.167 255.5,319.833 255.5,294.5C 255.5,293.833 255.833,293.5 256.5,293.5 Z"/></g>
<g><path style="opacity:1" fill="#43aa37" d="M 73.5,297.5 C 88.4877,305.317 103.488,312.984 118.5,320.5C 113.974,318.991 109.474,317.324 105,315.5C 102.267,317.428 101.1,316.761 101.5,313.5C 99.5165,313.617 97.8498,312.95 96.5,311.5C 93.1727,313 89.8393,314.5 86.5,316C 89.2618,318.019 91.9285,317.852 94.5,315.5C 97.0676,316.829 97.7342,318.662 96.5,321C 97.7236,323.29 99.0569,325.456 100.5,327.5C 99.1667,327.5 97.8333,327.5 96.5,327.5C 96.1667,327.5 95.8333,327.5 95.5,327.5C 94.4125,326 93.0792,324.667 91.5,323.5C 84.694,320.463 78.0273,317.13 71.5,313.5C 70.4291,311.675 71.0958,310.508 73.5,310C 71.3955,308.869 69.3955,307.703 67.5,306.5C 66.0992,306.029 64.7658,305.362 63.5,304.5C 65.942,302.956 67.942,300.956 69.5,298.5C 70.6888,297.571 72.0222,297.238 73.5,297.5 Z"/></g>
<g><path style="opacity:1" fill="#3faa31" d="M 118.5,320.5 C 122.137,321.263 125.47,322.597 128.5,324.5C 129.725,326.449 129.058,327.782 126.5,328.5C 128.457,331.059 130.123,330.726 131.5,327.5C 137.745,327.93 138.079,329.597 132.5,332.5C 128.205,333.661 123.871,333.828 119.5,333C 120.357,332.311 121.023,331.478 121.5,330.5C 117.094,329.687 113.094,329.02 109.5,328.5C 106.492,328.041 103.492,327.708 100.5,327.5C 99.0569,325.456 97.7236,323.29 96.5,321C 97.7342,318.662 97.0676,316.829 94.5,315.5C 91.9285,317.852 89.2618,318.019 86.5,316C 89.8393,314.5 93.1727,313 96.5,311.5C 97.8498,312.95 99.5165,313.617 101.5,313.5C 101.1,316.761 102.267,317.428 105,315.5C 109.474,317.324 113.974,318.991 118.5,320.5 Z"/></g>
<g><path style="opacity:1" fill="#476e4c" d="M 49.5,317.5 C 51.753,321.675 53.753,326.009 55.5,330.5C 49.9193,327.679 47.9193,323.346 49.5,317.5 Z"/></g>
<g><path style="opacity:1" fill="#35693b" d="M 339.5,328.5 C 336.167,332.5 332.5,336.167 328.5,339.5C 327.127,339.343 325.793,339.51 324.5,340C 323.491,342.172 321.824,343.338 319.5,343.5C 318.955,346.944 316.955,348.111 313.5,347C 313.923,344.624 313.089,342.457 311,340.5C 309.535,342.915 307.368,343.915 304.5,343.5C 304.5,342.5 304.5,341.5 304.5,340.5C 306.167,340.5 307.833,340.5 309.5,340.5C 308.959,336.705 310.625,334.705 314.5,334.5C 316.69,332.144 318.69,329.644 320.5,327C 321.549,326.508 322.549,326.674 323.5,327.5C 325.626,324.345 327.459,321.012 329,317.5C 329.928,315.665 331.094,315.332 332.5,316.5C 334.555,313.609 337.055,311.275 340,309.5C 340.617,305.413 342.784,302.58 346.5,301C 345.833,300.667 345.167,300.333 344.5,300C 345.823,299.184 346.489,298.017 346.5,296.5C 347.117,296.389 347.617,296.056 348,295.5C 348.667,298.167 349.333,298.167 350,295.5C 351.907,299.361 353.74,303.194 355.5,307C 353.55,309.066 351.717,311.233 350,313.5C 349.228,313.355 348.561,313.022 348,312.5C 345.817,313.292 343.817,314.292 342,315.5C 342.763,317.391 343.597,319.391 344.5,321.5C 343.5,321.5 342.5,321.5 341.5,321.5C 340.551,323.737 339.884,326.071 339.5,328.5 Z"/></g>
<g><path style="opacity:1" fill="#3b6944" d="M 255.5,294.5 C 255.5,319.833 255.5,345.167 255.5,370.5C 256.791,370.737 257.791,370.404 258.5,369.5C 260.883,367.642 263.55,366.308 266.5,365.5C 266.5,366.5 266.5,367.5 266.5,368.5C 263.142,370.243 259.642,371.909 256,373.5C 252.871,371.01 249.871,371.01 247,373.5C 244.509,372.78 242.009,372.113 239.5,371.5C 239.667,345.831 239.5,320.165 239,294.5C 235.065,293.862 231.231,293.196 227.5,292.5C 231.951,292.053 235.951,292.053 239.5,292.5C 243.687,289.687 245.02,290.687 243.5,295.5C 245.182,297.17 245.849,299.837 245.5,303.5C 247.124,303.36 248.29,304.027 249,305.5C 250.645,303.075 251.811,300.408 252.5,297.5C 253.288,296.23 254.288,295.23 255.5,294.5 Z"/></g>
<g><path style="opacity:1" fill="#60b250" d="M 96.5,327.5 C 97.8333,327.5 99.1667,327.5 100.5,327.5C 103.492,327.708 106.492,328.041 109.5,328.5C 108.527,328.987 107.527,329.487 106.5,330C 108.525,331.677 110.859,332.677 113.5,333C 115.192,334.307 116.525,335.807 117.5,337.5C 110.078,334.922 103.078,331.589 96.5,327.5 Z"/></g>
<g><path style="opacity:1" fill="#4cac3f" d="M 128.5,324.5 C 136.678,326.786 144.345,330.119 151.5,334.5C 148.437,334.137 145.437,333.47 142.5,332.5C 140.133,332.842 137.8,333.342 135.5,334C 136.641,334.741 136.641,335.575 135.5,336.5C 130.306,338.058 130.306,339.058 135.5,339.5C 135.5,340.833 135.5,342.167 135.5,343.5C 136.93,343.579 138.264,343.246 139.5,342.5C 143.096,344.806 146.929,346.806 151,348.5C 151.483,347.552 151.649,346.552 151.5,345.5C 155.005,344.891 157.672,346.058 159.5,349C 157.096,349.508 156.429,350.675 157.5,352.5C 158.478,352.023 159.311,351.357 160,350.5C 162.939,352.385 166.105,353.885 169.5,355C 168.748,355.671 168.414,356.504 168.5,357.5C 165.63,356.366 162.63,355.7 159.5,355.5C 145.421,349.695 131.421,343.695 117.5,337.5C 116.525,335.807 115.192,334.307 113.5,333C 110.859,332.677 108.525,331.677 106.5,330C 107.527,329.487 108.527,328.987 109.5,328.5C 113.094,329.02 117.094,329.687 121.5,330.5C 121.023,331.478 120.357,332.311 119.5,333C 123.871,333.828 128.205,333.661 132.5,332.5C 138.079,329.597 137.745,327.93 131.5,327.5C 130.123,330.726 128.457,331.059 126.5,328.5C 129.058,327.782 129.725,326.449 128.5,324.5 Z"/></g>
<g><path style="opacity:1" fill="#3b6943" d="M 346.5,296.5 C 346.489,298.017 345.823,299.184 344.5,300C 345.167,300.333 345.833,300.667 346.5,301C 342.784,302.58 340.617,305.413 340,309.5C 337.055,311.275 334.555,313.609 332.5,316.5C 331.094,315.332 329.928,315.665 329,317.5C 327.459,321.012 325.626,324.345 323.5,327.5C 322.549,326.674 321.549,326.508 320.5,327C 318.69,329.644 316.69,332.144 314.5,334.5C 310.625,334.705 308.959,336.705 309.5,340.5C 307.833,340.5 306.167,340.5 304.5,340.5C 304.5,341.5 304.5,342.5 304.5,343.5C 307.368,343.915 309.535,342.915 311,340.5C 313.089,342.457 313.923,344.624 313.5,347C 316.955,348.111 318.955,346.944 319.5,343.5C 321.824,343.338 323.491,342.172 324.5,340C 325.793,339.51 327.127,339.343 328.5,339.5C 313.938,353.392 297.938,365.392 280.5,375.5C 280.48,373.857 281.147,372.524 282.5,371.5C 281.38,369.404 279.88,369.07 278,370.5C 277.342,368.892 277.842,367.725 279.5,367C 279.167,366 278.833,365 278.5,364C 276.343,363.922 274.343,363.755 272.5,363.5C 270.827,365.086 268.827,365.753 266.5,365.5C 281.309,356.919 295.309,347.086 308.5,336C 321.723,323.407 334.389,310.24 346.5,296.5 Z"/></g>
<g><path style="opacity:1" fill="#67b359" d="M 170.5,341.5 C 173.721,341.896 176.388,343.229 178.5,345.5C 175.264,345.482 172.597,344.482 170.5,342.5C 170.5,342.167 170.5,341.833 170.5,341.5 Z"/></g>
<g><path style="opacity:1" fill="#42ab35" d="M 151.5,334.5 C 157.932,336.548 164.265,338.882 170.5,341.5C 170.5,341.833 170.5,342.167 170.5,342.5C 167.282,342.651 166.949,343.484 169.5,345C 166.44,345.151 164.107,346.485 162.5,349C 166.699,349.99 169.866,349.157 172,346.5C 175.969,347.011 180.135,347.845 184.5,349C 183.833,349.667 183.167,350.333 182.5,351C 188.635,354.559 188.468,356.726 182,357.5C 179.834,356.25 177.501,355.584 175,355.5C 173.186,356.486 171.02,357.153 168.5,357.5C 168.414,356.504 168.748,355.671 169.5,355C 166.105,353.885 162.939,352.385 160,350.5C 159.311,351.357 158.478,352.023 157.5,352.5C 156.429,350.675 157.096,349.508 159.5,349C 157.672,346.058 155.005,344.891 151.5,345.5C 151.649,346.552 151.483,347.552 151,348.5C 146.929,346.806 143.096,344.806 139.5,342.5C 138.264,343.246 136.93,343.579 135.5,343.5C 135.5,342.167 135.5,340.833 135.5,339.5C 130.306,339.058 130.306,338.058 135.5,336.5C 136.641,335.575 136.641,334.741 135.5,334C 137.8,333.342 140.133,332.842 142.5,332.5C 145.437,333.47 148.437,334.137 151.5,334.5 Z"/></g>
<g><path style="opacity:1" fill="#34683e" d="M 433.5,343.5 C 435.604,343.201 437.604,343.534 439.5,344.5C 437.199,346.163 437.199,347.997 439.5,350C 436.894,350.45 435.561,351.95 435.5,354.5C 438.167,353.833 440.833,353.167 443.5,352.5C 443.008,354.841 441.841,356.841 440,358.5C 439.151,361.521 438.317,364.521 437.5,367.5C 426.381,385.626 412.381,401.293 395.5,414.5C 395.5,413.167 395.5,411.833 395.5,410.5C 396.675,410.719 397.675,410.386 398.5,409.5C 396.475,405.994 394.308,402.661 392,399.5C 390.933,400.191 389.766,400.691 388.5,401C 378.325,401.825 368.325,401.658 358.5,400.5C 361.385,400.806 364.052,400.473 366.5,399.5C 373.863,399.831 381.197,399.497 388.5,398.5C 406.898,382.786 421.898,364.453 433.5,343.5 Z"/></g>
<g><path style="opacity:1" fill="#67af5e" d="M 159.5,355.5 C 162.63,355.7 165.63,356.366 168.5,357.5C 174.803,359.483 180.803,362.316 186.5,366C 192.793,367.764 199.126,369.597 205.5,371.5C 209.411,373.943 213.078,376.61 216.5,379.5C 197.227,371.862 178.227,363.862 159.5,355.5 Z"/></g>
<g><path style="opacity:1" fill="#43a635" d="M 170.5,342.5 C 172.597,344.482 175.264,345.482 178.5,345.5C 198.311,353.072 217.644,361.738 236.5,371.5C 236.842,372.338 237.508,372.672 238.5,372.5C 236.18,376.641 232.513,378.641 227.5,378.5C 225.625,379.409 224.292,380.743 223.5,382.5C 222.167,382.5 220.833,382.5 219.5,382.5C 218.694,381.272 217.694,380.272 216.5,379.5C 213.078,376.61 209.411,373.943 205.5,371.5C 199.126,369.597 192.793,367.764 186.5,366C 180.803,362.316 174.803,359.483 168.5,357.5C 171.02,357.153 173.186,356.486 175,355.5C 177.501,355.584 179.834,356.25 182,357.5C 188.468,356.726 188.635,354.559 182.5,351C 183.167,350.333 183.833,349.667 184.5,349C 180.135,347.845 175.969,347.011 172,346.5C 169.866,349.157 166.699,349.99 162.5,349C 164.107,346.485 166.44,345.151 169.5,345C 166.949,343.484 167.282,342.651 170.5,342.5 Z"/></g>
<g><path style="opacity:1" fill="#36673b" d="M 42.5,297.5 C 42.8333,297.5 43.1667,297.5 43.5,297.5C 44.568,304.437 46.568,311.104 49.5,317.5C 47.9193,323.346 49.9193,327.679 55.5,330.5C 64.737,347.248 75.4037,363.081 87.5,378C 92.0309,378.907 96.3642,380.073 100.5,381.5C 96.3196,381.811 92.3196,381.145 88.5,379.5C 85.7361,380.475 83.4028,379.641 81.5,377C 82.8213,375.455 82.4879,374.289 80.5,373.5C 79.132,376.8 79.632,379.8 82,382.5C 83.016,381.366 83.6827,381.699 84,383.5C 84.3333,383.167 84.6667,382.833 85,382.5C 86.0975,383.967 87.5975,384.801 89.5,385C 88.376,385.249 87.376,385.749 86.5,386.5C 86.8797,388.021 87.0464,389.687 87,391.5C 88.1131,390.289 89.2798,390.289 90.5,391.5C 92.0478,389.078 93.7145,389.078 95.5,391.5C 96.2458,392.736 96.5792,394.07 96.5,395.5C 101.023,396.286 105.357,397.786 109.5,400C 111.05,402.525 113.217,404.359 116,405.5C 116.245,403.337 117.245,401.67 119,400.5C 121.737,401.61 124.571,401.777 127.5,401C 129.376,399.983 131.376,399.149 133.5,398.5C 132.349,397.269 131.183,397.269 130,398.5C 126.876,397.013 126.876,395.347 130,393.5C 138.202,394.694 146.702,395.694 155.5,396.5C 152.398,397.159 149.231,398.159 146,399.5C 145.326,398.422 144.326,397.755 143,397.5C 140.783,398.532 138.617,398.532 136.5,397.5C 136.167,397.833 135.833,398.167 135.5,398.5C 136.908,399.243 138.241,400.077 139.5,401C 139.167,401.333 138.833,401.667 138.5,402C 140.723,402.566 142.723,403.4 144.5,404.5C 141.287,404.19 138.287,404.523 135.5,405.5C 132.5,405.5 129.5,405.5 126.5,405.5C 124.105,404.637 121.771,404.637 119.5,405.5C 121.824,408.313 124.49,410.646 127.5,412.5C 123.816,413.664 120.65,412.664 118,409.5C 117.311,412.329 118.478,413.996 121.5,414.5C 120.43,416.53 119.43,419.363 118.5,423C 121.185,424.161 123.185,425.994 124.5,428.5C 123.167,428.167 121.833,427.833 120.5,427.5C 115.929,425.262 111.929,422.262 108.5,418.5C 108.731,414.945 107.398,413.445 104.5,414C 105.833,412.667 105.833,411.333 104.5,410C 102.5,409.333 100.5,408.667 98.5,408C 94.4894,402.661 90.1561,397.661 85.5,393C 81.179,391.389 78.179,388.389 76.5,384C 75.2068,383.51 73.8734,383.343 72.5,383.5C 73.0249,378.884 71.1916,375.551 67,373.5C 66.2753,369.92 64.6086,366.92 62,364.5C 61.2904,365.973 60.1238,366.64 58.5,366.5C 56.6365,361.626 54.3031,356.959 51.5,352.5C 52.376,351.749 53.376,351.249 54.5,351C 53.8742,350.25 53.3742,349.416 53,348.5C 51.9805,349.687 50.8139,350.687 49.5,351.5C 47.5902,346.111 44.9235,341.111 41.5,336.5C 42.311,335.784 42.9777,334.95 43.5,334C 42.5938,331.209 41.9272,328.376 41.5,325.5C 38.6107,324.951 36.944,323.118 36.5,320C 37.809,315.028 37.809,309.861 36.5,304.5C 37.2344,305.878 37.9011,307.378 38.5,309C 39.635,309.749 40.635,309.583 41.5,308.5C 42.8966,305.615 42.2299,303.282 39.5,301.5C 41.2882,300.717 42.2882,299.384 42.5,297.5 Z"/></g>
<g><path style="opacity:1" fill="#307c2e" d="M 238.5,372.5 C 239.791,373.542 239.791,374.708 238.5,376C 233.375,377.875 228.375,380.042 223.5,382.5C 224.292,380.743 225.625,379.409 227.5,378.5C 232.513,378.641 236.18,376.641 238.5,372.5 Z"/></g>
<g><path style="opacity:1" fill="#349431" d="M 273.5,383.5 C 278.579,384.305 283.246,385.971 287.5,388.5C 287.389,389.117 287.056,389.617 286.5,390C 284.134,390.562 281.801,390.396 279.5,389.5C 277.893,389.637 276.559,390.304 275.5,391.5C 280.371,393.482 285.371,395.149 290.5,396.5C 287.407,396.998 284.574,397.998 282,399.5C 279.26,399.497 276.593,398.497 274,396.5C 272.989,397.337 271.822,397.67 270.5,397.5C 267.855,395.758 264.855,395.091 261.5,395.5C 260.47,392.896 260.47,390.229 261.5,387.5C 264.089,387.539 266.089,386.539 267.5,384.5C 269.265,383.539 271.265,383.205 273.5,383.5 Z"/></g>
<g><path style="opacity:1" fill="#46934d" d="M 267.5,384.5 C 266.089,386.539 264.089,387.539 261.5,387.5C 260.47,390.229 260.47,392.896 261.5,395.5C 259.938,395.267 258.605,394.6 257.5,393.5C 257.158,392.662 256.492,392.328 255.5,392.5C 255.5,392.167 255.5,391.833 255.5,391.5C 258.504,387.504 262.504,385.17 267.5,384.5 Z"/></g>
<g><path style="opacity:1" fill="#306737" d="M 280.5,375.5 C 277.948,376.693 275.448,378.027 273,379.5C 272.421,380.928 272.588,382.262 273.5,383.5C 271.265,383.205 269.265,383.539 267.5,384.5C 262.504,385.17 258.504,387.504 255.5,391.5C 253.983,391.511 252.816,392.177 252,393.5C 249.772,393.658 247.605,392.991 245.5,391.5C 245.762,390.022 245.429,388.689 244.5,387.5C 239.397,392.376 233.23,395.043 226,395.5C 224.69,396.13 223.856,397.13 223.5,398.5C 217.72,400.723 211.72,402.056 205.5,402.5C 196.204,403.662 186.871,404.662 177.5,405.5C 168.989,405.391 160.489,405.391 152,405.5C 149.427,404.272 146.927,403.939 144.5,404.5C 142.723,403.4 140.723,402.566 138.5,402C 138.833,401.667 139.167,401.333 139.5,401C 138.241,400.077 136.908,399.243 135.5,398.5C 135.833,398.167 136.167,397.833 136.5,397.5C 138.617,398.532 140.783,398.532 143,397.5C 144.326,397.755 145.326,398.422 146,399.5C 149.231,398.159 152.398,397.159 155.5,396.5C 146.702,395.694 138.202,394.694 130,393.5C 126.876,395.347 126.876,397.013 130,398.5C 131.183,397.269 132.349,397.269 133.5,398.5C 131.376,399.149 129.376,399.983 127.5,401C 124.571,401.777 121.737,401.61 119,400.5C 117.245,401.67 116.245,403.337 116,405.5C 113.217,404.359 111.05,402.525 109.5,400C 105.357,397.786 101.023,396.286 96.5,395.5C 96.5792,394.07 96.2458,392.736 95.5,391.5C 93.7145,389.078 92.0478,389.078 90.5,391.5C 89.2798,390.289 88.1131,390.289 87,391.5C 87.0464,389.687 86.8797,388.021 86.5,386.5C 87.376,385.749 88.376,385.249 89.5,385C 87.5975,384.801 86.0975,383.967 85,382.5C 84.6667,382.833 84.3333,383.167 84,383.5C 83.6827,381.699 83.016,381.366 82,382.5C 79.632,379.8 79.132,376.8 80.5,373.5C 82.4879,374.289 82.8213,375.455 81.5,377C 83.4028,379.641 85.7361,380.475 88.5,379.5C 92.3196,381.145 96.3196,381.811 100.5,381.5C 108.455,383.714 116.455,385.714 124.5,387.5C 131.162,389.87 138.162,390.87 145.5,390.5C 145.833,390.5 146.167,390.5 146.5,390.5C 158.66,391.66 170.993,391.827 183.5,391C 185.382,390.802 187.048,390.302 188.5,389.5C 199.088,387.934 209.421,385.601 219.5,382.5C 220.833,382.5 222.167,382.5 223.5,382.5C 228.375,380.042 233.375,377.875 238.5,376C 239.791,374.708 239.791,373.542 238.5,372.5C 237.508,372.672 236.842,372.338 236.5,371.5C 237.5,371.5 238.5,371.5 239.5,371.5C 242.009,372.113 244.509,372.78 247,373.5C 249.871,371.01 252.871,371.01 256,373.5C 259.642,371.909 263.142,370.243 266.5,368.5C 266.5,367.5 266.5,366.5 266.5,365.5C 268.827,365.753 270.827,365.086 272.5,363.5C 274.343,363.755 276.343,363.922 278.5,364C 278.833,365 279.167,366 279.5,367C 277.842,367.725 277.342,368.892 278,370.5C 279.88,369.07 281.38,369.404 282.5,371.5C 281.147,372.524 280.48,373.857 280.5,375.5 Z"/></g>
<g><path style="opacity:1" fill="#7d9880" d="M 188.5,389.5 C 187.048,390.302 185.382,390.802 183.5,391C 170.993,391.827 158.66,391.66 146.5,390.5C 160.522,390.722 174.522,390.388 188.5,389.5 Z"/></g>
<g><path style="opacity:1" fill="#8fa793" d="M 124.5,387.5 C 131.668,388.269 138.668,389.269 145.5,390.5C 138.162,390.87 131.162,389.87 124.5,387.5 Z"/></g>
<g><path style="opacity:1" fill="#fdfdfd" d="M 257.5,393.5 C 258.605,394.6 259.938,395.267 261.5,395.5C 269.279,399.987 277.612,403.321 286.5,405.5C 303.541,411.505 321.208,415.171 339.5,416.5C 341.167,416.5 342.833,416.5 344.5,416.5C 348.97,417.486 353.637,417.819 358.5,417.5C 358.719,418.675 358.386,419.675 357.5,420.5C 352.793,423.56 348.126,426.56 343.5,429.5C 337.828,432.168 332.162,434.834 326.5,437.5C 319.647,439.59 312.981,441.924 306.5,444.5C 301.16,445.223 295.827,446.057 290.5,447C 289.944,447.383 289.611,447.883 289.5,448.5C 287.5,448.5 285.5,448.5 283.5,448.5C 279.64,448.808 275.974,449.475 272.5,450.5C 267.228,451.4 261.895,451.733 256.5,451.5C 256.17,431.993 256.503,412.659 257.5,393.5 Z"/></g>
<g><path style="opacity:1" fill="#fcfcfc" d="M 229.5,450.5 C 229.167,450.5 228.833,450.5 228.5,450.5C 220.506,449.387 212.506,448.054 204.5,446.5C 195.282,444.756 186.282,442.423 177.5,439.5C 171.907,435.934 165.907,433.267 159.5,431.5C 155.353,429.19 151.02,427.024 146.5,425C 140.284,420.611 133.951,416.444 127.5,412.5C 124.49,410.646 121.824,408.313 119.5,405.5C 121.771,404.637 124.105,404.637 126.5,405.5C 141.077,408.449 155.743,409.116 170.5,407.5C 182.471,406.942 194.137,405.276 205.5,402.5C 211.72,402.056 217.72,400.723 223.5,398.5C 228.66,396.543 233.994,395.21 239.5,394.5C 239.5,413.167 239.5,431.833 239.5,450.5C 236.167,450.5 232.833,450.5 229.5,450.5 Z"/></g>
<g><path style="opacity:1" fill="#416845" d="M 108.5,418.5 C 88.2287,404.616 71.562,387.283 58.5,366.5C 60.1238,366.64 61.2904,365.973 62,364.5C 64.6086,366.92 66.2753,369.92 67,373.5C 71.1916,375.551 73.0249,378.884 72.5,383.5C 73.8734,383.343 75.2068,383.51 76.5,384C 78.179,388.389 81.179,391.389 85.5,393C 90.1561,397.661 94.4894,402.661 98.5,408C 100.5,408.667 102.5,409.333 104.5,410C 105.833,411.333 105.833,412.667 104.5,414C 107.398,413.445 108.731,414.945 108.5,418.5 Z"/></g>
<g><path style="opacity:1" fill="#338d31" d="M 287.5,388.5 C 293.916,390.352 300.249,392.352 306.5,394.5C 309.739,396.149 313.073,397.816 316.5,399.5C 316.291,400.086 315.957,400.586 315.5,401C 317.107,402.049 317.773,403.549 317.5,405.5C 313.182,405.303 309.015,405.303 305,405.5C 301.889,404.039 298.723,403.706 295.5,404.5C 294.614,403.675 294.281,402.675 294.5,401.5C 285.658,403.903 277.658,402.57 270.5,397.5C 271.822,397.67 272.989,397.337 274,396.5C 276.593,398.497 279.26,399.497 282,399.5C 284.574,397.998 287.407,396.998 290.5,396.5C 285.371,395.149 280.371,393.482 275.5,391.5C 276.559,390.304 277.893,389.637 279.5,389.5C 281.801,390.396 284.134,390.562 286.5,390C 287.056,389.617 287.389,389.117 287.5,388.5 Z"/></g>
<g><path style="opacity:1" fill="#99b29b" d="M 331.5,398.5 C 343.152,399.233 354.819,399.566 366.5,399.5C 364.052,400.473 361.385,400.806 358.5,400.5C 350.146,400.573 341.812,400.24 333.5,399.5C 332.508,399.672 331.842,399.338 331.5,398.5 Z"/></g>
<g><path style="opacity:1" fill="#326835" d="M 333.5,399.5 C 341.812,400.24 350.146,400.573 358.5,400.5C 368.325,401.658 378.325,401.825 388.5,401C 389.766,400.691 390.933,400.191 392,399.5C 394.308,402.661 396.475,405.994 398.5,409.5C 397.675,410.386 396.675,410.719 395.5,410.5C 395.5,411.833 395.5,413.167 395.5,414.5C 391.364,414.468 388.364,416.302 386.5,420C 382.824,422.171 379.157,424.337 375.5,426.5C 373.556,425.811 371.556,425.311 369.5,425C 370.337,423.989 370.67,422.822 370.5,421.5C 368.857,421.48 367.524,422.147 366.5,423.5C 363.012,422.35 360.345,420.35 358.5,417.5C 353.637,417.819 348.97,417.486 344.5,416.5C 347.856,416.85 350.856,416.017 353.5,414C 350.375,410.065 346.709,406.565 342.5,403.5C 339.231,402.531 336.231,401.198 333.5,399.5 Z"/></g>
<g><path style="opacity:1" fill="#406c4a" d="M 205.5,402.5 C 194.137,405.276 182.471,406.942 170.5,407.5C 161.494,407.666 152.494,407.5 143.5,407C 140.635,406.817 137.969,406.317 135.5,405.5C 138.287,404.523 141.287,404.19 144.5,404.5C 146.927,403.939 149.427,404.272 152,405.5C 160.489,405.391 168.989,405.391 177.5,405.5C 186.871,404.662 196.204,403.662 205.5,402.5 Z"/></g>
<g><path style="opacity:1" fill="#358737" d="M 306.5,394.5 C 312.142,395.628 317.809,396.628 323.5,397.5C 324.987,398.804 326.654,399.97 328.5,401C 326.478,402.132 326.145,403.799 327.5,406C 327.204,407.888 326.704,409.722 326,411.5C 322.602,410.966 319.102,410.966 315.5,411.5C 305.901,409.076 296.235,407.076 286.5,405.5C 277.612,403.321 269.279,399.987 261.5,395.5C 264.855,395.091 267.855,395.758 270.5,397.5C 277.658,402.57 285.658,403.903 294.5,401.5C 294.281,402.675 294.614,403.675 295.5,404.5C 298.723,403.706 301.889,404.039 305,405.5C 309.015,405.303 313.182,405.303 317.5,405.5C 317.773,403.549 317.107,402.049 315.5,401C 315.957,400.586 316.291,400.086 316.5,399.5C 313.073,397.816 309.739,396.149 306.5,394.5 Z"/></g>
<g><path style="opacity:1" fill="#8ba292" d="M 126.5,405.5 C 129.5,405.5 132.5,405.5 135.5,405.5C 137.969,406.317 140.635,406.817 143.5,407C 152.494,407.5 161.494,407.666 170.5,407.5C 155.743,409.116 141.077,408.449 126.5,405.5 Z"/></g>
<g><path style="opacity:1" fill="#347738" d="M 323.5,397.5 C 326.127,398.092 328.794,398.425 331.5,398.5C 331.842,399.338 332.508,399.672 333.5,399.5C 336.231,401.198 339.231,402.531 342.5,403.5C 346.709,406.565 350.375,410.065 353.5,414C 350.856,416.017 347.856,416.85 344.5,416.5C 342.833,416.5 341.167,416.5 339.5,416.5C 331.5,414.833 323.5,413.167 315.5,411.5C 319.102,410.966 322.602,410.966 326,411.5C 326.704,409.722 327.204,407.888 327.5,406C 326.145,403.799 326.478,402.132 328.5,401C 326.654,399.97 324.987,398.804 323.5,397.5 Z"/></g>
<g><path style="opacity:1" fill="#609761" d="M 286.5,405.5 C 296.235,407.076 305.901,409.076 315.5,411.5C 323.5,413.167 331.5,414.833 339.5,416.5C 321.208,415.171 303.541,411.505 286.5,405.5 Z"/></g>
<g><path style="opacity:1" fill="#34633b" d="M 395.5,414.5 C 372.869,433.154 347.536,447.154 319.5,456.5C 319.389,455.883 319.056,455.383 318.5,455C 320.059,454.02 321.726,453.187 323.5,452.5C 322.395,451.108 321.061,449.941 319.5,449C 326.196,444.378 333.529,441.212 341.5,439.5C 341.351,438.448 341.517,437.448 342,436.5C 342.333,436.833 342.667,437.167 343,437.5C 346.015,435.262 348.848,432.929 351.5,430.5C 354.669,430.017 357.336,428.684 359.5,426.5C 359,426.167 358.5,425.833 358,425.5C 353.142,427.087 348.309,428.421 343.5,429.5C 348.126,426.56 352.793,423.56 357.5,420.5C 358.386,419.675 358.719,418.675 358.5,417.5C 360.345,420.35 363.012,422.35 366.5,423.5C 367.524,422.147 368.857,421.48 370.5,421.5C 370.67,422.822 370.337,423.989 369.5,425C 371.556,425.311 373.556,425.811 375.5,426.5C 379.157,424.337 382.824,422.171 386.5,420C 388.364,416.302 391.364,414.468 395.5,414.5 Z"/></g>
<g><path style="opacity:1" fill="#d6dcd7" d="M 255.5,392.5 C 256.492,392.328 257.158,392.662 257.5,393.5C 256.503,412.659 256.17,431.993 256.5,451.5C 256.167,451.5 255.833,451.5 255.5,451.5C 255.5,431.833 255.5,412.167 255.5,392.5 Z"/></g>
<g><path style="opacity:1" fill="#48724d" d="M 120.5,427.5 C 121.833,427.833 123.167,428.167 124.5,428.5C 128.237,431.318 132.57,433.151 137.5,434C 138.337,435.011 138.67,436.178 138.5,437.5C 145.161,440.148 151.828,442.982 158.5,446C 159.748,447.4 160.748,448.9 161.5,450.5C 146.725,444.617 133.058,436.951 120.5,427.5 Z"/></g>
<g><path style="opacity:1" fill="#48714d" d="M 159.5,431.5 C 165.907,433.267 171.907,435.934 177.5,439.5C 171.15,438.599 165.15,436.932 159.5,434.5C 159.5,433.5 159.5,432.5 159.5,431.5 Z"/></g>
<g><path style="opacity:1" fill="#306736" d="M 127.5,412.5 C 133.951,416.444 140.284,420.611 146.5,425C 151.02,427.024 155.353,429.19 159.5,431.5C 159.5,432.5 159.5,433.5 159.5,434.5C 165.15,436.932 171.15,438.599 177.5,439.5C 179.69,440.374 180.69,442.041 180.5,444.5C 183.238,443.965 185.072,444.965 186,447.5C 187.77,446.724 189.603,446.89 191.5,448C 196.34,453.597 202.34,454.764 209.5,451.5C 213.216,452.346 216.883,453.346 220.5,454.5C 223.094,452.302 226.094,451.302 229.5,451.5C 232.898,451.18 236.232,451.513 239.5,452.5C 238.758,453.287 237.925,453.953 237,454.5C 233.333,454.5 229.667,454.5 226,454.5C 223.878,455.22 223.378,456.387 224.5,458C 229.289,460.096 233.956,459.929 238.5,457.5C 239.386,458.325 239.719,459.325 239.5,460.5C 235.858,461.464 232.358,462.13 229,462.5C 226.3,461.656 223.633,460.656 221,459.5C 218.815,460.758 216.648,460.758 214.5,459.5C 211.887,463.48 209.22,463.48 206.5,459.5C 205.808,460.025 205.308,460.692 205,461.5C 201.325,460.208 197.992,458.208 195,455.5C 194.275,456.059 193.442,456.392 192.5,456.5C 189.605,454.764 186.605,453.431 183.5,452.5C 183.725,448.944 182.892,448.61 181,451.5C 179.174,450.99 179.007,450.156 180.5,449C 177.832,448.433 175.166,447.933 172.5,447.5C 172.166,449.545 171.832,451.211 171.5,452.5C 170.749,451.624 170.249,450.624 170,449.5C 167.256,449.214 164.423,449.547 161.5,450.5C 160.748,448.9 159.748,447.4 158.5,446C 151.828,442.982 145.161,440.148 138.5,437.5C 138.67,436.178 138.337,435.011 137.5,434C 132.57,433.151 128.237,431.318 124.5,428.5C 123.185,425.994 121.185,424.161 118.5,423C 119.43,419.363 120.43,416.53 121.5,414.5C 118.478,413.996 117.311,412.329 118,409.5C 120.65,412.664 123.816,413.664 127.5,412.5 Z"/></g>
<g><path style="opacity:1" fill="#4d7656" d="M 326.5,437.5 C 322.564,440.321 318.23,442.488 313.5,444C 311.19,444.497 308.857,444.663 306.5,444.5C 312.981,441.924 319.647,439.59 326.5,437.5 Z"/></g>
<g><path style="opacity:1" fill="#336339" d="M 177.5,439.5 C 186.282,442.423 195.282,444.756 204.5,446.5C 212.011,449.494 220.011,450.828 228.5,450.5C 228.833,450.5 229.167,450.5 229.5,450.5C 229.5,450.833 229.5,451.167 229.5,451.5C 226.094,451.302 223.094,452.302 220.5,454.5C 216.883,453.346 213.216,452.346 209.5,451.5C 202.34,454.764 196.34,453.597 191.5,448C 189.603,446.89 187.77,446.724 186,447.5C 185.072,444.965 183.238,443.965 180.5,444.5C 180.69,442.041 179.69,440.374 177.5,439.5 Z"/></g>
<g><path style="opacity:1" fill="#477050" d="M 306.5,444.5 C 305.571,445.315 304.571,446.148 303.5,447C 298.898,448.122 294.232,448.622 289.5,448.5C 289.611,447.883 289.944,447.383 290.5,447C 295.827,446.057 301.16,445.223 306.5,444.5 Z"/></g>
<g><path style="opacity:1" fill="#658567" d="M 204.5,446.5 C 212.506,448.054 220.506,449.387 228.5,450.5C 220.011,450.828 212.011,449.494 204.5,446.5 Z"/></g>
<g><path style="opacity:1" fill="#2f6336" d="M 319.5,456.5 C 318.292,457.234 316.959,457.567 315.5,457.5C 311.486,457.666 307.486,457.499 303.5,457C 303,456.5 302.5,456 302,455.5C 299.814,455.3 297.647,455.967 295.5,457.5C 293.267,456.385 291.101,456.385 289,457.5C 288.044,456.106 286.711,455.439 285,455.5C 282.112,455.977 279.279,456.644 276.5,457.5C 273.681,457.481 270.847,457.148 268,456.5C 265.141,457.173 262.308,458.007 259.5,459C 261.158,459.725 261.658,460.892 261,462.5C 258.938,464.39 257.105,466.39 255.5,468.5C 254.527,470.948 254.194,473.615 254.5,476.5C 252.653,479.171 249.986,480.171 246.5,479.5C 244.879,474.219 245.546,469.219 248.5,464.5C 246.314,463.779 244.147,463.113 242,462.5C 241.667,462.833 241.333,463.167 241,463.5C 240.833,460.968 242,459.134 244.5,458C 243.167,456.667 241.833,455.333 240.5,454C 241.126,453.25 241.626,452.416 242,451.5C 243.036,453.567 244.536,454.734 246.5,455C 245.978,454.439 245.645,453.772 245.5,453C 247.04,450.67 248.207,448.17 249,445.5C 250.049,447.107 251.549,447.773 253.5,447.5C 253.157,449.483 253.824,450.817 255.5,451.5C 255.833,451.5 256.167,451.5 256.5,451.5C 261.895,451.733 267.228,451.4 272.5,450.5C 276.489,450.884 280.155,450.217 283.5,448.5C 285.5,448.5 287.5,448.5 289.5,448.5C 294.232,448.622 298.898,448.122 303.5,447C 304.571,446.148 305.571,445.315 306.5,444.5C 308.857,444.663 311.19,444.497 313.5,444C 318.23,442.488 322.564,440.321 326.5,437.5C 332.162,434.834 337.828,432.168 343.5,429.5C 348.309,428.421 353.142,427.087 358,425.5C 358.5,425.833 359,426.167 359.5,426.5C 357.336,428.684 354.669,430.017 351.5,430.5C 348.848,432.929 346.015,435.262 343,437.5C 342.667,437.167 342.333,436.833 342,436.5C 341.517,437.448 341.351,438.448 341.5,439.5C 333.529,441.212 326.196,444.378 319.5,449C 321.061,449.941 322.395,451.108 323.5,452.5C 321.726,453.187 320.059,454.02 318.5,455C 319.056,455.383 319.389,455.883 319.5,456.5 Z"/></g>
<g><path style="opacity:1" fill="#8aa18c" d="M 283.5,448.5 C 280.155,450.217 276.489,450.884 272.5,450.5C 275.974,449.475 279.64,448.808 283.5,448.5 Z"/></g>
<g><path style="opacity:1" fill="#37623b" d="M 315.5,457.5 C 310.005,459.466 304.338,461.299 298.5,463C 284.204,465.257 269.871,467.09 255.5,468.5C 257.105,466.39 258.938,464.39 261,462.5C 261.658,460.892 261.158,459.725 259.5,459C 262.308,458.007 265.141,457.173 268,456.5C 270.847,457.148 273.681,457.481 276.5,457.5C 279.279,456.644 282.112,455.977 285,455.5C 286.711,455.439 288.044,456.106 289,457.5C 291.101,456.385 293.267,456.385 295.5,457.5C 297.647,455.967 299.814,455.3 302,455.5C 302.5,456 303,456.5 303.5,457C 307.486,457.499 311.486,457.666 315.5,457.5 Z"/></g>
<g><path style="opacity:1" fill="#54785a" d="M 188.5,459.5 C 191.518,459.335 194.518,459.502 197.5,460C 203.981,462.046 210.314,463.879 216.5,465.5C 206.751,464.885 197.418,462.885 188.5,459.5 Z"/></g>
<g><path style="opacity:1" fill="#36663e" d="M 255.5,391.5 C 255.5,391.833 255.5,392.167 255.5,392.5C 255.5,412.167 255.5,431.833 255.5,451.5C 253.824,450.817 253.157,449.483 253.5,447.5C 251.549,447.773 250.049,447.107 249,445.5C 248.207,448.17 247.04,450.67 245.5,453C 245.645,453.772 245.978,454.439 246.5,455C 244.536,454.734 243.036,453.567 242,451.5C 241.626,452.416 241.126,453.25 240.5,454C 241.833,455.333 243.167,456.667 244.5,458C 242,459.134 240.833,460.968 241,463.5C 241.333,463.167 241.667,462.833 242,462.5C 244.147,463.113 246.314,463.779 248.5,464.5C 245.546,469.219 244.879,474.219 246.5,479.5C 249.986,480.171 252.653,479.171 254.5,476.5C 256.039,485.247 252.372,488.913 243.5,487.5C 242.542,487.047 241.708,486.381 241,485.5C 240.501,479.843 240.334,474.176 240.5,468.5C 240.5,467.5 240.5,466.5 240.5,465.5C 232.833,465.5 225.167,465.5 217.5,465.5C 217.167,465.5 216.833,465.5 216.5,465.5C 210.314,463.879 203.981,462.046 197.5,460C 194.518,459.502 191.518,459.335 188.5,459.5C 179.086,457.473 170.086,454.473 161.5,450.5C 164.423,449.547 167.256,449.214 170,449.5C 170.249,450.624 170.749,451.624 171.5,452.5C 171.832,451.211 172.166,449.545 172.5,447.5C 175.166,447.933 177.832,448.433 180.5,449C 179.007,450.156 179.174,450.99 181,451.5C 182.892,448.61 183.725,448.944 183.5,452.5C 186.605,453.431 189.605,454.764 192.5,456.5C 193.442,456.392 194.275,456.059 195,455.5C 197.992,458.208 201.325,460.208 205,461.5C 205.308,460.692 205.808,460.025 206.5,459.5C 209.22,463.48 211.887,463.48 214.5,459.5C 216.648,460.758 218.815,460.758 221,459.5C 223.633,460.656 226.3,461.656 229,462.5C 232.358,462.13 235.858,461.464 239.5,460.5C 239.719,459.325 239.386,458.325 238.5,457.5C 233.956,459.929 229.289,460.096 224.5,458C 223.378,456.387 223.878,455.22 226,454.5C 229.667,454.5 233.333,454.5 237,454.5C 237.925,453.953 238.758,453.287 239.5,452.5C 236.232,451.513 232.898,451.18 229.5,451.5C 229.5,451.167 229.5,450.833 229.5,450.5C 232.833,450.5 236.167,450.5 239.5,450.5C 239.5,431.833 239.5,413.167 239.5,394.5C 233.994,395.21 228.66,396.543 223.5,398.5C 223.856,397.13 224.69,396.13 226,395.5C 233.23,395.043 239.397,392.376 244.5,387.5C 245.429,388.689 245.762,390.022 245.5,391.5C 247.605,392.991 249.772,393.658 252,393.5C 252.816,392.177 253.983,391.511 255.5,391.5 Z"/></g>
<g><path style="opacity:1" fill="#527a59" d="M 217.5,465.5 C 225.167,465.5 232.833,465.5 240.5,465.5C 240.5,466.5 240.5,467.5 240.5,468.5C 232.708,467.752 225.042,466.752 217.5,465.5 Z"/></g>
<g><path style="opacity:1" fill="#5b7e61" d="M 255.5,468.5 C 255.666,474.509 255.499,480.509 255,486.5C 253.178,488.045 251.011,488.712 248.5,488.5C 246.631,488.493 244.964,488.16 243.5,487.5C 252.372,488.913 256.039,485.247 254.5,476.5C 254.194,473.615 254.527,470.948 255.5,468.5 Z"/></g>
</svg>
